<svg xmlns="http://www.w3.org/2000/svg" viewBox="0 0 750 500"><g id="freepik--background-complete--inject-1587"><path d="M70.49,195.1a32.74,32.74,0,0,1,8-3.49l1.65-7.94,13.41-.23,1.93,7.87a32.93,32.93,0,0,1,8.14,3.21l6.78-4.45,9.65,9.32-4.2,6.93a33.08,33.08,0,0,1,3.49,8l7.93,1.66.24,13.41-7.88,1.93a32.51,32.51,0,0,1-3.2,8.14l4.45,6.78-9.32,9.65-6.93-4.2a33,33,0,0,1-8,3.48L95,263.13l-13.41.24-1.93-7.88a32.9,32.9,0,0,1-8.14-3.2l-6.78,4.44-9.65-9.32,4.2-6.93a32.71,32.71,0,0,1-3.48-8l-7.94-1.65L47.6,217.4l7.88-1.93a32.9,32.9,0,0,1,3.2-8.14l-4.44-6.78,9.31-9.65,6.94,4.2ZM77.64,213A14.39,14.39,0,1,0,98,212.61,14.39,14.39,0,0,0,77.64,213Z" style="fill:#f5f5f5"></path><path d="M381.57,333.84a33,33,0,0,1,8-3.48l1.66-7.94,13.41-.24,1.93,7.88a32.9,32.9,0,0,1,8.14,3.2l6.78-4.44,9.65,9.32-4.2,6.93a32.71,32.71,0,0,1,3.48,8l7.94,1.65.24,13.41-7.88,1.94a32.83,32.83,0,0,1-3.2,8.13L432,385l-9.31,9.65-6.93-4.2a32.6,32.6,0,0,1-8,3.49l-1.65,7.94-13.41.23-1.93-7.87a32.93,32.93,0,0,1-8.14-3.21l-6.78,4.45-9.65-9.32,4.2-6.93a33.08,33.08,0,0,1-3.49-8l-7.94-1.65-.23-13.42,7.88-1.93a32.9,32.9,0,0,1,3.2-8.14l-4.45-6.78,9.32-9.65,6.93,4.2Zm7.15,17.87a14.39,14.39,0,1,0,20.35-.35A14.39,14.39,0,0,0,388.72,351.71Z" style="fill:#f5f5f5"></path><path d="M73.05,333.23H40.92a4,4,0,0,1-4-4V284.74a4,4,0,0,1,4-4H61.3L77.07,297v32.23A4,4,0,0,1,73.05,333.23Z" style="fill:#ebebeb"></path><path d="M36.9,317.3H77.07a0,0,0,0,1,0,0v10.21a5.72,5.72,0,0,1-5.72,5.72H42.62a5.72,5.72,0,0,1-5.72-5.72V317.3A0,0,0,0,1,36.9,317.3Z" style="fill:#e0e0e0"></path><path d="M51.14,327.57l1-1.21a1.8,1.8,0,0,0,1.46.86c.73,0,1.11-.43,1.11-1.3v-3.74H52v-1.46h4.57v5.1c0,1.94-1,2.9-2.83,2.9A3.16,3.16,0,0,1,51.14,327.57Z" style="fill:#fafafa"></path><path d="M57.61,328l.59-1.26a4.12,4.12,0,0,0,2.1.59c.81,0,1.11-.22,1.11-.55,0-1-3.65,0-3.65-2.39,0-1.15,1-2,2.8-2a4.91,4.91,0,0,1,2.32.53l-.58,1.25a3.45,3.45,0,0,0-1.74-.45c-.79,0-1.13.24-1.13.56,0,1,3.65,0,3.65,2.41,0,1.12-1,1.92-2.85,1.92A5.24,5.24,0,0,1,57.61,328Z" style="fill:#fafafa"></path><path d="M45.41,308.93l1.26-1.47a3.8,3.8,0,0,0,3.17,1.8c1.72,0,2.61-1,2.61-3.08v-8.54H47v-1.89H54.6v10.32c0,3.38-1.65,5.06-4.76,5.06A5.31,5.31,0,0,1,45.41,308.93Z" style="fill:#fafafa"></path><path d="M57.27,309.74l.87-1.65a7.44,7.44,0,0,0,4,1.19c1.93,0,2.73-.59,2.73-1.56,0-2.59-7.27-.35-7.27-4.93,0-2.06,1.85-3.45,4.8-3.45a8.38,8.38,0,0,1,4.19,1L65.74,302a6,6,0,0,0-3.32-.91c-1.83,0-2.72.67-2.72,1.58,0,2.72,7.3.5,7.3,5,0,2.09-1.91,3.41-5,3.41A8.34,8.34,0,0,1,57.27,309.74Z" style="fill:#fafafa"></path><g style="opacity:0.30000000000000004"><path d="M61.3,280.72v12.52A3.73,3.73,0,0,0,65,297h12Z" style="fill:#fff"></path></g><path d="M61.46,294.33a4.16,4.16,0,0,0,3.3,4l.39.09c1.57.28,11.92,2.12,11.92,1.88V297H65S62,296.87,61.46,294.33Z" style="fill:#e0e0e0"></path><path d="M81.63,391.26A17.44,17.44,0,0,1,86,389.38l.89-4.29L94.1,385l1,4.26a17.73,17.73,0,0,1,4.39,1.72l3.66-2.4,5.22,5-2.27,3.74a18.21,18.21,0,0,1,1.88,4.33l4.28.89.13,7.24-4.25,1.05a17.67,17.67,0,0,1-1.73,4.39l2.4,3.66-5,5.21-3.74-2.27a17.85,17.85,0,0,1-4.33,1.89l-.9,4.28-7.24.13-1-4.25a18,18,0,0,1-4.4-1.73l-3.66,2.4-5.21-5,2.27-3.75a17.65,17.65,0,0,1-1.88-4.33l-4.29-.89-.12-7.24,4.25-1a17.59,17.59,0,0,1,1.73-4.4l-2.4-3.66,5-5.21,3.74,2.27Zm3.86,9.65a7.77,7.77,0,1,0,11-.2A7.76,7.76,0,0,0,85.49,400.91Z" style="fill:#f5f5f5"></path><path d="M140.89,385.19h59.87a5.38,5.38,0,0,1,5.38,5.38v53.13a4.55,4.55,0,0,1-4.55,4.55H140.07a4.55,4.55,0,0,1-4.55-4.55V390.56A5.38,5.38,0,0,1,140.89,385.19Z" style="fill:#fff"></path><path d="M140.89,385.19h59.87a5.38,5.38,0,0,1,5.38,5.38v9a0,0,0,0,1,0,0H135.51a0,0,0,0,1,0,0v-9A5.38,5.38,0,0,1,140.89,385.19Z" style="fill:#ebebeb"></path><path d="M147.08,393.13a2.58,2.58,0,1,1-2.57-2.62A2.59,2.59,0,0,1,147.08,393.13Z" style="fill:#fff"></path><path d="M155,393.13a2.58,2.58,0,1,1-2.58-2.62A2.6,2.6,0,0,1,155,393.13Z" style="fill:#fff"></path><path d="M162.88,393.13a2.58,2.58,0,1,1-2.58-2.62A2.6,2.6,0,0,1,162.88,393.13Z" style="fill:#fff"></path><rect x="148.57" y="406.54" width="44.5" height="34.36" rx="5.47" style="fill:#ebebeb"></rect><path d="M165.84,423.39v-5.28a1.69,1.69,0,0,1,2.54-1.47l4.57,2.64,4.57,2.64a1.69,1.69,0,0,1,0,2.93L173,427.49l-4.57,2.64a1.69,1.69,0,0,1-2.54-1.47Z" style="fill:#fff"></path><path d="M202.48,448.24a4,4,0,0,0,.66-.08,3.57,3.57,0,0,0,1.73-.87,3.62,3.62,0,0,0,1.2-2.81c0-1.28,0-2.74,0-4.38,0-6.61,0-16.14-.06-27.92,0-5.89,0-12.35,0-19.28v-2.62a11.15,11.15,0,0,0,0-1.3,3.8,3.8,0,0,0-.36-1.22,4.1,4.1,0,0,0-3-2.31,6.53,6.53,0,0,0-1.34-.08h-60.4a12.77,12.77,0,0,0-1.65.05,4.08,4.08,0,0,0-3.35,3,6,6,0,0,0-.14,1.6v19.55c0,8.48,0,16.66,0,24.46,0,1.94,0,3.87,0,5.77v4.22a5.33,5.33,0,0,0,.1,1.34,3.49,3.49,0,0,0,1.48,2.08,3.4,3.4,0,0,0,1.18.49,7,7,0,0,0,1.31.08h5.28l19.28,0,27.91.06,7.59,0,2,0,.68,0-.68,0-2,0-7.59,0-27.91.06-19.28,0h-5.28a6.51,6.51,0,0,1-1.38-.08,3.67,3.67,0,0,1-1.31-.54,3.87,3.87,0,0,1-1.64-2.29,5.79,5.79,0,0,1-.11-1.43v-1.4c0-.93,0-1.88,0-2.82v-5.77c0-7.8,0-16,0-24.46V396.7q0-3.29,0-6.62a6.6,6.6,0,0,1,.15-1.7,4.62,4.62,0,0,1,.76-1.58,4.48,4.48,0,0,1,2.94-1.76,12.38,12.38,0,0,1,1.71-.06h24.57l24.44,0h11.39a7.53,7.53,0,0,1,1.41.09,4.81,4.81,0,0,1,1.33.48,4.58,4.58,0,0,1,1.89,2,4.27,4.27,0,0,1,.38,1.34,10.15,10.15,0,0,1,0,1.34v2.62c0,6.93,0,13.39,0,19.28,0,11.78-.05,21.31-.06,27.92,0,1.64,0,3.1,0,4.38a3.73,3.73,0,0,1-1.28,2.88,3.56,3.56,0,0,1-1.77.84,2.84,2.84,0,0,1-.5.05Z" style="fill:#e0e0e0"></path><path d="M649.88,352.28h59.87a5.38,5.38,0,0,1,5.38,5.38v53.13a4.55,4.55,0,0,1-4.55,4.55H649.06a4.55,4.55,0,0,1-4.55-4.55V357.65A5.38,5.38,0,0,1,649.88,352.28Z" style="fill:#fff"></path><path d="M649.88,352.28h59.87a5.38,5.38,0,0,1,5.38,5.38v9a0,0,0,0,1,0,0H644.51a0,0,0,0,1,0,0v-9A5.38,5.38,0,0,1,649.88,352.28Z" style="fill:#ebebeb"></path><path d="M656.07,360.22a2.58,2.58,0,1,1-2.57-2.62A2.59,2.59,0,0,1,656.07,360.22Z" style="fill:#fff"></path><path d="M664,360.22a2.58,2.58,0,1,1-2.57-2.62A2.59,2.59,0,0,1,664,360.22Z" style="fill:#fff"></path><path d="M671.87,360.22a2.58,2.58,0,1,1-2.58-2.62A2.6,2.6,0,0,1,671.87,360.22Z" style="fill:#fff"></path><rect x="657.57" y="373.63" width="44.5" height="34.36" rx="5.47" style="fill:#ebebeb"></rect><path d="M674.83,390.47V385.2a1.69,1.69,0,0,1,2.54-1.47l4.57,2.64,4.57,2.64a1.69,1.69,0,0,1,0,2.93l-4.57,2.64-4.57,2.64a1.69,1.69,0,0,1-2.54-1.47Z" style="fill:#fff"></path><path d="M711.47,415.33a6.3,6.3,0,0,0,.66-.08,3.62,3.62,0,0,0,1.73-.87,3.68,3.68,0,0,0,1.21-2.82c0-1.27,0-2.73,0-4.38,0-6.6,0-16.13-.07-27.91,0-5.89,0-12.35,0-19.28v-2.62a11.15,11.15,0,0,0,0-1.3,4,4,0,0,0-.35-1.22,4.09,4.09,0,0,0-3-2.31,6.53,6.53,0,0,0-1.34-.08h-60.4a11.2,11.2,0,0,0-1.65.05,4.08,4.08,0,0,0-3.35,3,6,6,0,0,0-.14,1.6v19.55c0,8.48,0,16.66,0,24.45,0,1.95,0,3.88,0,5.77v4.23a5.33,5.33,0,0,0,.1,1.34,3.49,3.49,0,0,0,1.48,2.08,3.6,3.6,0,0,0,1.18.49,6.25,6.25,0,0,0,1.31.07H654l19.28,0,27.91.06,7.59,0,2,0,.67,0-.67,0-2,0-7.59,0-27.91.06-19.28,0h-5.28a6.51,6.51,0,0,1-1.38-.08,3.75,3.75,0,0,1-1.31-.54,3.85,3.85,0,0,1-1.63-2.29,5.36,5.36,0,0,1-.12-1.43v-4.23c0-1.89,0-3.82,0-5.77,0-7.79,0-16,0-24.45V357.17a6.28,6.28,0,0,1,.14-1.71,4.67,4.67,0,0,1,.76-1.57,4.54,4.54,0,0,1,2.94-1.77,14.24,14.24,0,0,1,1.71-.05h60.4a7.53,7.53,0,0,1,1.41.09,4.7,4.7,0,0,1,1.33.48,4.52,4.52,0,0,1,1.89,2,4.57,4.57,0,0,1,.39,1.34,12.1,12.1,0,0,1,0,1.34V360c0,6.93,0,13.39,0,19.28,0,11.78-.06,21.31-.07,27.91,0,1.65,0,3.11,0,4.38a3.77,3.77,0,0,1-1.27,2.89,3.62,3.62,0,0,1-1.78.84,2.84,2.84,0,0,1-.5,0Z" style="fill:#e0e0e0"></path><path d="M180.4,54.64h55.79A5.38,5.38,0,0,1,241.57,60V109.5a4.55,4.55,0,0,1-4.55,4.55H179.58A4.55,4.55,0,0,1,175,109.5V60A5.38,5.38,0,0,1,180.4,54.64Z" style="fill:#fff"></path><path d="M180.4,54.64h55.79A5.38,5.38,0,0,1,241.57,60v8.17a0,0,0,0,1,0,0H175a0,0,0,0,1,0,0V60A5.38,5.38,0,0,1,180.4,54.64Z" style="fill:#ebebeb"></path><path d="M185.92,62.12a2.43,2.43,0,1,1-2.42-2.47A2.44,2.44,0,0,1,185.92,62.12Z" style="fill:#fff"></path><path d="M193.36,62.12a2.43,2.43,0,1,1-2.42-2.47A2.44,2.44,0,0,1,193.36,62.12Z" style="fill:#fff"></path><path d="M200.81,62.12a2.43,2.43,0,1,1-2.43-2.47A2.45,2.45,0,0,1,200.81,62.12Z" style="fill:#fff"></path><path d="M238.12,114.05a5.74,5.74,0,0,0,.63-.08,3.37,3.37,0,0,0,1.62-.81,3.44,3.44,0,0,0,1.14-2.66c0-1.2,0-2.57,0-4.13,0-6.22,0-15.2-.06-26.3,0-5.55,0-11.63,0-18.16V59.44a10,10,0,0,0,0-1.23,3.61,3.61,0,0,0-.33-1.15,4,4,0,0,0-1.64-1.76,4.23,4.23,0,0,0-1.16-.42,7.37,7.37,0,0,0-1.26-.07H180.06a9.92,9.92,0,0,0-1.55,0A3.83,3.83,0,0,0,176,56.4a3.77,3.77,0,0,0-.64,1.34,5.78,5.78,0,0,0-.13,1.51V77.67c0,8,0,15.7,0,23,0,1.84,0,3.65,0,5.44v4a4.71,4.71,0,0,0,.1,1.26,3.27,3.27,0,0,0,2.5,2.42,5.54,5.54,0,0,0,1.23.07h5l18.17,0,26.3.07,7.15,0,1.86,0,.63,0s-.22,0-.63,0l-1.86,0-7.15,0-26.3.06-18.17,0h-5a6.45,6.45,0,0,1-1.3-.07,3.69,3.69,0,0,1-1.23-.51,3.64,3.64,0,0,1-1.54-2.17,5.09,5.09,0,0,1-.11-1.34v-4c0-1.79,0-3.6,0-5.44,0-7.34,0-15,0-23V59.25a5.55,5.55,0,0,1,.14-1.61,4.14,4.14,0,0,1,.71-1.48,4.25,4.25,0,0,1,2.77-1.66,11,11,0,0,1,1.61-.06H237a6,6,0,0,1,1.33.08,4.42,4.42,0,0,1,1.26.45,4.22,4.22,0,0,1,1.77,1.92,4.28,4.28,0,0,1,.37,1.25,10.92,10.92,0,0,1,0,1.27v2.47c0,6.53,0,12.61,0,18.16,0,11.1-.05,20.08-.07,26.3,0,1.56,0,2.93,0,4.13a3.56,3.56,0,0,1-1.2,2.72,3.35,3.35,0,0,1-1.68.79,2.49,2.49,0,0,1-.47,0Z" style="fill:#e0e0e0"></path><rect x="193.83" y="76.89" width="29.57" height="29.57" rx="3.99" style="fill:#f5f5f5"></rect><path d="M193.83,98.07v5.52a2.88,2.88,0,0,0,2.87,2.87h23.79a2.91,2.91,0,0,0,2.91-2.92V94.66l-6.89-6.41a1.89,1.89,0,0,0-2.72.14l-5.4,6.19-5.32-2.52a2.68,2.68,0,0,0-2.91.42Z" style="fill:#ebebeb"></path><path d="M209.88,84.72a2.67,2.67,0,1,1-2.67-2.67A2.67,2.67,0,0,1,209.88,84.72Z" style="fill:#ebebeb"></path><path d="M641.41,49.47H697.2a5.38,5.38,0,0,1,5.38,5.38v49.48a4.55,4.55,0,0,1-4.55,4.55H640.59a4.55,4.55,0,0,1-4.55-4.55V54.85A5.38,5.38,0,0,1,641.41,49.47Z" style="fill:#fff"></path><path d="M641.41,49.47H697.2a5.38,5.38,0,0,1,5.38,5.38V63a0,0,0,0,1,0,0H636a0,0,0,0,1,0,0V54.85A5.38,5.38,0,0,1,641.41,49.47Z" style="fill:#ebebeb"></path><path d="M646.94,57a2.43,2.43,0,1,1-2.43-2.47A2.45,2.45,0,0,1,646.94,57Z" style="fill:#fff"></path><path d="M654.38,57A2.43,2.43,0,1,1,652,54.49,2.45,2.45,0,0,1,654.38,57Z" style="fill:#fff"></path><path d="M661.82,57a2.43,2.43,0,1,1-2.43-2.47A2.45,2.45,0,0,1,661.82,57Z" style="fill:#fff"></path><path d="M699.13,108.89s.22,0,.63-.08a3.48,3.48,0,0,0,1.63-.82,3.41,3.41,0,0,0,1.13-2.65c0-1.2,0-2.58,0-4.13,0-6.22,0-15.2-.06-26.3,0-5.56,0-11.64,0-18.17,0-.81,0-1.63,0-2.46a10,10,0,0,0,0-1.23,3.68,3.68,0,0,0-.34-1.16,3.91,3.91,0,0,0-1.64-1.75,4,4,0,0,0-1.15-.42,5.87,5.87,0,0,0-1.27-.07h-56.9a13.26,13.26,0,0,0-1.56,0,3.89,3.89,0,0,0-3.16,2.86,5.32,5.32,0,0,0-.12,1.51q0,3.13,0,6.23V72.51c0,8,0,15.69,0,23V105a5.24,5.24,0,0,0,.1,1.26,3.26,3.26,0,0,0,1.39,2,3.07,3.07,0,0,0,1.12.47,6.17,6.17,0,0,0,1.23.07h5l18.16,0,26.3.06,7.15,0,1.86,0c.42,0,.63,0,.63,0l-.63,0-1.86,0-7.15,0-26.3.07-18.16,0h-5a6.4,6.4,0,0,1-1.3-.08,3.54,3.54,0,0,1-1.24-.51,3.66,3.66,0,0,1-1.54-2.16,5.6,5.6,0,0,1-.11-1.34V95.55c0-7.35,0-15,0-23q0-6,0-12.19V54.09a6.34,6.34,0,0,1,.14-1.61,4.28,4.28,0,0,1,3.48-3.15,12.75,12.75,0,0,1,1.62,0H698a6.65,6.65,0,0,1,1.33.08,4.33,4.33,0,0,1,1.26.46A4.21,4.21,0,0,1,702.71,53c0,.44,0,.85,0,1.27,0,.83,0,1.65,0,2.46,0,6.53,0,12.61,0,18.17,0,11.1-.05,20.08-.06,26.3,0,1.55,0,2.93,0,4.13a3.51,3.51,0,0,1-1.2,2.71,3.45,3.45,0,0,1-1.67.8,3.5,3.5,0,0,1-.48,0Z" style="fill:#e0e0e0"></path><rect x="654.85" y="71.72" width="29.57" height="29.57" rx="3.99" style="fill:#f5f5f5"></rect><path d="M654.85,92.9v5.53a2.86,2.86,0,0,0,2.86,2.86H681.5a2.92,2.92,0,0,0,2.92-2.92V89.49l-6.9-6.41a1.89,1.89,0,0,0-2.72.15l-5.4,6.18-5.31-2.51a2.67,2.67,0,0,0-2.92.41Z" style="fill:#ebebeb"></path><path d="M670.9,79.56a2.67,2.67,0,1,1-2.67-2.67A2.67,2.67,0,0,1,670.9,79.56Z" style="fill:#ebebeb"></path><path d="M460.76,267.65H556a6.3,6.3,0,0,1,6.3,6.3v110.6a6.3,6.3,0,0,1-6.3,6.3H459.74a6.3,6.3,0,0,1-6.3-6.3V275A7.32,7.32,0,0,1,460.76,267.65Z" style="fill:#fff"></path><path d="M556.05,390.87H459.74a6.34,6.34,0,0,1-6.33-6.32V275a7.35,7.35,0,0,1,7.35-7.34h95.29a6.33,6.33,0,0,1,6.32,6.32V384.55A6.33,6.33,0,0,1,556.05,390.87Zm-95.29-123.2a7.3,7.3,0,0,0-7.3,7.29V384.55a6.29,6.29,0,0,0,6.28,6.27h96.31a6.28,6.28,0,0,0,6.27-6.27V273.94a6.28,6.28,0,0,0-6.27-6.27Z" style="fill:#e0e0e0"></path><path d="M459.6,267.65h95.76a7,7,0,0,1,7,7v14.66a0,0,0,0,1,0,0H453.44a0,0,0,0,1,0,0V273.81A6.16,6.16,0,0,1,459.6,267.65Z" style="fill:#e0e0e0"></path><path d="M463.64,331.56V308.2a1,1,0,0,1,1-1.07h15.12l3.56-3.27a2.34,2.34,0,0,1,1.6-.64h14.74a1.93,1.93,0,0,1,1.81,2v25.37a1.92,1.92,0,0,1-1.81,2h-35A1,1,0,0,1,463.64,331.56Z" style="fill:#e0e0e0"></path><path d="M466.23,375.14V351.78a1,1,0,0,1,.95-1.07H482.3l3.57-3.27a2.34,2.34,0,0,1,1.6-.64h14.74a1.92,1.92,0,0,1,1.81,2v25.37a1.93,1.93,0,0,1-1.81,2h-35A1,1,0,0,1,466.23,375.14Z" style="fill:#e0e0e0"></path><path d="M513.52,331.56V308.2a1,1,0,0,1,1-1.07H529.6l3.56-3.27a2.36,2.36,0,0,1,1.6-.64h14.75a1.93,1.93,0,0,1,1.8,2v25.37a1.92,1.92,0,0,1-1.8,2h-35A1,1,0,0,1,513.52,331.56Z" style="fill:#e0e0e0"></path><path d="M513.82,375.14V351.78a1,1,0,0,1,1-1.07H529.9l3.57-3.27a2.32,2.32,0,0,1,1.6-.64h14.74a1.92,1.92,0,0,1,1.81,2v25.37a1.93,1.93,0,0,1-1.81,2h-35A1,1,0,0,1,513.82,375.14Z" style="fill:#e0e0e0"></path><circle cx="467.48" cy="278.91" r="2.74" style="fill:#fff"></circle><path d="M467.48,281.68a2.77,2.77,0,1,1,2.76-2.77A2.77,2.77,0,0,1,467.48,281.68Zm0-5.48a2.72,2.72,0,1,0,2.71,2.71A2.71,2.71,0,0,0,467.48,276.2Z" style="fill:#e0e0e0"></path><circle cx="475.7" cy="278.91" r="2.74" style="fill:#fff"></circle><path d="M475.7,281.68a2.77,2.77,0,1,1,2.77-2.77A2.78,2.78,0,0,1,475.7,281.68Zm0-5.48a2.72,2.72,0,1,0,2.72,2.71A2.71,2.71,0,0,0,475.7,276.2Z" style="fill:#e0e0e0"></path><circle cx="483.93" cy="278.91" r="2.74" style="fill:#fff"></circle><path d="M483.93,281.68a2.77,2.77,0,1,1,2.76-2.77A2.77,2.77,0,0,1,483.93,281.68Zm0-5.48a2.72,2.72,0,1,0,2.71,2.71A2.71,2.71,0,0,0,483.93,276.2Z" style="fill:#e0e0e0"></path><path d="M556.05,390.84s.4,0,1.16-.13a6.32,6.32,0,0,0,5.06-6.46c0-2.2,0-4.75,0-7.61,0-11.47,0-28.05-.09-48.54,0-10.25,0-21.47,0-33.52q0-9,0-18.67c0-.79,0-1.62,0-2.4a6.28,6.28,0,0,0-.61-2.24,6.08,6.08,0,0,0-3.46-3,6.71,6.71,0,0,0-2.37-.34h-7.55L460,268a7.06,7.06,0,0,0-6.05,5.16,9.66,9.66,0,0,0-.25,2.81v11.5q0,11.43,0,22.49c0,14.75,0,29,0,42.52q0,10.15,0,19.8,0,4.81,0,9.48V384a6.57,6.57,0,0,0,.25,2.22,6.12,6.12,0,0,0,2.59,3.43,5.9,5.9,0,0,0,2,.81,10.48,10.48,0,0,0,2.18.13h13l16.08,0,48.53.08,13.2.05,3.43,0,1.17,0-1.17,0-3.43,0-13.2.05-48.53.08h-29a11.73,11.73,0,0,1-2.27-.14,6.32,6.32,0,0,1-2.14-.87,6.5,6.5,0,0,1-2.78-3.67,6.92,6.92,0,0,1-.27-2.34v-2.33q0-4.66,0-9.48,0-9.63,0-19.8c0-13.55,0-27.77,0-42.52v-34a10.25,10.25,0,0,1,.27-2.95,7.47,7.47,0,0,1,1.34-2.67,7.59,7.59,0,0,1,5.15-2.87l88.17,0h7.55a7.23,7.23,0,0,1,2.52.36,6.59,6.59,0,0,1,3.72,3.29,6.47,6.47,0,0,1,.66,2.42c0,.84,0,1.62,0,2.43q0,9.63,0,18.67c0,12.05,0,23.27,0,33.52,0,20.49-.06,37.07-.08,48.54,0,2.86,0,5.41,0,7.61a6.4,6.4,0,0,1-2.15,5,6.22,6.22,0,0,1-3.06,1.49,4.83,4.83,0,0,1-.88.08A2.13,2.13,0,0,1,556.05,390.84Z" style="fill:#e0e0e0"></path></g><g id="freepik--Floor--inject-1587"><path d="M684.61,472.44c0,.15-135.94.26-303.6.26s-303.62-.11-303.62-.26,135.91-.26,303.62-.26S684.61,472.3,684.61,472.44Z" style="fill:#263238"></path></g><g id="freepik--Tab--inject-1587"><rect x="339.79" y="32.96" width="256.21" height="195.77" rx="12.65" style="fill:#fff"></rect><path d="M373.39,196.51V164.34a1.4,1.4,0,0,1,1.32-1.48h20.82l4.92-4.51a3.25,3.25,0,0,1,2.2-.88H423a2.66,2.66,0,0,1,2.49,2.79V195.2A2.66,2.66,0,0,1,423,198H374.71A1.4,1.4,0,0,1,373.39,196.51Z" style="fill:#455a64"></path><path d="M445.9,196.51V164.34a1.4,1.4,0,0,1,1.32-1.48H468l4.92-4.51a3.25,3.25,0,0,1,2.2-.88h20.31a2.66,2.66,0,0,1,2.49,2.79V195.2a2.66,2.66,0,0,1-2.49,2.79H447.22A1.4,1.4,0,0,1,445.9,196.51Z" style="fill:#FF725E"></path><path d="M522.45,196.51V164.34a1.4,1.4,0,0,1,1.32-1.48h20.82l4.92-4.51a3.25,3.25,0,0,1,2.2-.88H572a2.66,2.66,0,0,1,2.49,2.79V195.2A2.66,2.66,0,0,1,572,198H523.77A1.4,1.4,0,0,1,522.45,196.51Z" style="fill:#e0e0e0"></path><path d="M518.15,128.55V96.37a1.41,1.41,0,0,1,1.31-1.48h20.83l4.92-4.5a3.25,3.25,0,0,1,2.2-.88h20.31a2.66,2.66,0,0,1,2.49,2.79v34.93a2.65,2.65,0,0,1-2.49,2.79H519.46A1.4,1.4,0,0,1,518.15,128.55Z" style="fill:#FF725E"></path><path d="M373.39,129.22V97a1.4,1.4,0,0,1,1.32-1.47h20.82l4.92-4.51a3.25,3.25,0,0,1,2.2-.88H423A2.66,2.66,0,0,1,425.45,93v34.94A2.66,2.66,0,0,1,423,130.7H374.71A1.4,1.4,0,0,1,373.39,129.22Z" style="fill:#FF725E"></path><path d="M445.9,129.22V97a1.4,1.4,0,0,1,1.32-1.47H468L473,91.06a3.25,3.25,0,0,1,2.2-.88h20.31A2.66,2.66,0,0,1,498,93v34.94a2.66,2.66,0,0,1-2.49,2.79H447.22A1.4,1.4,0,0,1,445.9,129.22Z" style="fill:#455a64"></path><path d="M352.62,33H583.86A12.15,12.15,0,0,1,596,45.11v17a0,0,0,0,1,0,0H339.79a0,0,0,0,1,0,0V45.79A12.83,12.83,0,0,1,352.62,33Z" style="fill:#e0e0e0"></path><circle cx="358.81" cy="47.51" r="3.78" style="fill:#fff"></circle><circle cx="370.43" cy="47.51" r="3.78" style="fill:#fff"></circle><circle cx="382.04" cy="47.51" r="3.78" style="fill:#fff"></circle><rect x="547.67" y="171.55" width="4.4" height="16.55" style="fill:#fff"></rect><rect x="547.67" y="171.55" width="4.4" height="16.55" transform="translate(370.05 729.7) rotate(-90)" style="fill:#fff"></rect><path d="M583.36,228.72l.57,0,.71,0,1-.16a13.22,13.22,0,0,0,2.67-.8,13.48,13.48,0,0,0,3.26-2.05,12.53,12.53,0,0,0,3-3.83,13,13,0,0,0,1.37-5.7c0-4.29,0-9.25,0-14.83,0-22.33,0-54.63-.08-94.54,0-10,0-20.43,0-31.32V58.75c0-2.83,0-5.69,0-8.57s.31-5.85-.67-8.58a12.45,12.45,0,0,0-9.47-8.2,23.74,23.74,0,0,0-4.48-.22h-57l-171.68,0a12.38,12.38,0,0,0-12.09,9.64,25.07,25.07,0,0,0-.32,5.57v66.21c0,28.72,0,56.42,0,82.81,0,6.59,0,13.13,0,19.52a12.44,12.44,0,0,0,12.44,11.53h36.37l65.29,0,94.53.08,25.7,0,6.68,0,2.28,0-2.28,0-6.68,0-25.7.05-94.53.08-65.29,0H352.51A12.87,12.87,0,0,1,339.61,217c-.1-6.46,0-13-.06-19.56,0-26.39,0-54.09,0-82.81q0-21.54,0-43.81V45.61c0-.48,0-1,.09-1.44s.12-1,.24-1.42a13.12,13.12,0,0,1,2.48-5.17,13,13,0,0,1,10.12-4.88l171.68,0h57a25,25,0,0,1,4.56.23A13.08,13.08,0,0,1,590,34.58a12.84,12.84,0,0,1,5.56,6.88,13.86,13.86,0,0,1,.69,4.37v4.35q0,4.32,0,8.57V75.41c0,10.89,0,21.35,0,31.32,0,39.91-.06,72.21-.08,94.54,0,5.58,0,10.54,0,14.83a12.92,12.92,0,0,1-1.41,5.76,12.59,12.59,0,0,1-3,3.85,13.17,13.17,0,0,1-3.3,2,14.13,14.13,0,0,1-2.69.79l-1,.14-.72,0Z" style="fill:#263238"></path></g><g id="freepik--device-1--inject-1587"><path d="M102.18,146.29H234.82a11.59,11.59,0,0,1,11.59,11.59V350.62a17.79,17.79,0,0,1-17.79,17.79H102.37a11.52,11.52,0,0,1-11.52-11.52V157.62A11.33,11.33,0,0,1,102.18,146.29Z" style="fill:#f5f5f5"></path><path d="M200.36,311.53,183.81,336.3a3.18,3.18,0,0,0,2.65,4.95h27.82a3.76,3.76,0,0,0,3.12-1.66L234,314.82a3.18,3.18,0,0,0-2.65-4.95H203.48A3.76,3.76,0,0,0,200.36,311.53Z" style="fill:#ebebeb"></path><path d="M200.36,311.53a3,3,0,0,1,.93-1,3.76,3.76,0,0,1,1.56-.67,20.6,20.6,0,0,1,2.3-.07l14.61-.09,10.09,0h1.37a3.67,3.67,0,0,1,1.45.28,3.44,3.44,0,0,1,1.93,2.24,3.5,3.5,0,0,1-.58,3l-1.68,2.52c-4.53,6.78-9.5,14.24-14.72,22.07a4.05,4.05,0,0,1-3.15,1.78H204.23l-12.8,0h-4.5a5,5,0,0,1-1.52-.17,3.46,3.46,0,0,1-2.14-2,3.34,3.34,0,0,1,.22-2.85c2-3.06,3.9-5.83,5.62-8.4l8.19-12.1c1-1.4,1.71-2.5,2.25-3.27l.59-.85a2.14,2.14,0,0,1,.22-.28,1.41,1.41,0,0,1-.17.31l-.56.88c-.51.78-1.24,1.9-2.16,3.33l-8.05,12.19-5.55,8.4a2.88,2.88,0,0,0-.18,2.48,3,3,0,0,0,1.86,1.76,4.13,4.13,0,0,0,1.38.14h27.52a3.53,3.53,0,0,0,2.74-1.55l14.75-22.05,1.69-2.51a3,3,0,0,0-1.14-4.54,7.16,7.16,0,0,0-2.64-.26l-10.09,0L205.15,310a20.67,20.67,0,0,0-2.27,0,3.74,3.74,0,0,0-1.53.59A5.73,5.73,0,0,0,200.36,311.53Z" style="fill:#263238"></path><g style="opacity:0.30000000000000004"><path d="M191.74,336.89a2.31,2.31,0,1,1-2.31-2.31A2.32,2.32,0,0,1,191.74,336.89Z"></path></g><g style="opacity:0.30000000000000004"><circle cx="228.53" cy="314.61" r="2.31"></circle></g><g style="opacity:0.30000000000000004"><path d="M101.94,146.92h11.64a0,0,0,0,1,0,0v23a0,0,0,0,1,0,0h-23a0,0,0,0,1,0,0V158.25A11.33,11.33,0,0,1,101.94,146.92Z"></path></g><circle cx="102.09" cy="158.4" r="3.89" style="fill:#263238"></circle><g style="opacity:0.30000000000000004"><path d="M223.2,146.92h11.38a11.59,11.59,0,0,1,11.59,11.59v11.38a0,0,0,0,1,0,0h-23a0,0,0,0,1,0,0v-23A0,0,0,0,1,223.2,146.92Z"></path></g><circle cx="234.68" cy="158.4" r="3.89" style="fill:#263238"></circle><g style="opacity:0.30000000000000004"><path d="M90.61,346.07h23a0,0,0,0,1,0,0v23a0,0,0,0,1,0,0H102.13a11.52,11.52,0,0,1-11.52-11.52V346.07A0,0,0,0,1,90.61,346.07Z"></path></g><circle cx="102.09" cy="357.55" r="3.89" style="fill:#263238"></circle><g style="opacity:0.30000000000000004"><path d="M223.2,346.07h23a0,0,0,0,1,0,0v5.18A17.79,17.79,0,0,1,228.38,369H223.2a0,0,0,0,1,0,0v-23A0,0,0,0,1,223.2,346.07Z"></path></g><circle cx="234.68" cy="357.55" r="3.89" style="fill:#263238"></circle><path d="M170.27,161.32a66.26,66.26,0,1,0,66.26,66.25A66.25,66.25,0,0,0,170.27,161.32Zm0,74.59a8.34,8.34,0,1,1,8.34-8.34A8.34,8.34,0,0,1,170.27,235.91Z" style="fill:#FF725E"></path><g style="opacity:0.30000000000000004"><path d="M170.27,206.3a21.27,21.27,0,1,0,21.27,21.27A21.28,21.28,0,0,0,170.27,206.3Zm0,29.61a8.34,8.34,0,1,1,8.34-8.34A8.34,8.34,0,0,1,170.27,235.91Z"></path></g><path d="M173.76,213.13a3,3,0,1,1-2.95-3A2.95,2.95,0,0,1,173.76,213.13Z" style="fill:#e0e0e0"></path><path d="M159.24,223.25a2.95,2.95,0,1,1-1-4.06A3,3,0,0,1,159.24,223.25Z" style="fill:#e0e0e0"></path><path d="M163.92,240.25a3,3,0,1,1-1-4.06A3,3,0,0,1,163.92,240.25Z" style="fill:#e0e0e0"></path><path d="M186.6,223.25a3,3,0,1,1-1-4.06A3,3,0,0,1,186.6,223.25Z" style="fill:#e0e0e0"></path><path d="M182.93,239.37a2.95,2.95,0,1,1-1-4.06A2.94,2.94,0,0,1,182.93,239.37Z" style="fill:#e0e0e0"></path><g style="opacity:0.30000000000000004"><path d="M235.52,238.71l-76,54.5c1.84.29,3.59.51,5.18.62L234,245.74A66.67,66.67,0,0,0,235.52,238.71Z" style="fill:#fff"></path></g><path d="M119.33,291.39s20.76,1.35,30.41-5.82,46.53-43.39,47.69-42.68c1.77,1.08-29.83,51.19-32.7,55.66s-9,14.17-3.67,19.08l3.14,3.7-4.67,7.91-31.29-4-7.8-21.55Z" style="fill:#e0e0e0"></path><g style="opacity:0.30000000000000004"><path d="M157.36,299.42A8.62,8.62,0,1,1,148,291.6,8.63,8.63,0,0,1,157.36,299.42Z"></path></g><path d="M152.76,299.83a4,4,0,1,1-4.35-3.63A4,4,0,0,1,152.76,299.83Z" style="fill:#263238"></path><path d="M106.06,283.31v32.95a4.87,4.87,0,0,0,1.41,3.42l20.17,20.17a4.87,4.87,0,0,0,3.42,1.41h43.77a4.83,4.83,0,0,0,4.83-4.83v-20a4.83,4.83,0,0,0-4.83-4.83H145a4.83,4.83,0,0,1-3.59-1.6l-26.93-29.93a4.88,4.88,0,0,0-3.73-1.6h0A4.84,4.84,0,0,0,106.06,283.31Z" style="fill:#ebebeb"></path><path d="M106.06,283.31a4,4,0,0,1,0-.61,5,5,0,0,1,.51-1.7,4.92,4.92,0,0,1,7.91-1.09l1.74,1.91,3.93,4.34,9.58,10.58,11.59,12.84a4.76,4.76,0,0,0,4,1.8H174c.46,0,.92,0,1.41,0a4.94,4.94,0,0,1,1.42.36,5.11,5.11,0,0,1,3.14,4.66v17.54c0,1,0,2,0,3a5.13,5.13,0,0,1-4,4.43,17.45,17.45,0,0,1-3,.12H155.33l-21.94,0c-.88,0-1.73,0-2.62,0a5,5,0,0,1-2.53-.85,16,16,0,0,1-1.89-1.76l-1.77-1.77-6.8-6.82-6.36-6.38-3-3c-.48-.51-1-.94-1.44-1.49a5.11,5.11,0,0,1-.94-1.84,6.51,6.51,0,0,1-.17-2v-1.91c0-1.25,0-2.48,0-3.67,0-2.38,0-4.63,0-6.73,0-4.2,0-7.81,0-10.78s0-5.23,0-6.81c0-.76,0-1.35,0-1.77s0-.6,0-.6,0,.2,0,.6,0,1,0,1.77c0,1.58,0,3.87,0,6.81s0,6.58,0,10.78c0,2.1,0,4.35,0,6.73,0,1.19,0,2.42,0,3.67,0,.63,0,1.27,0,1.91a6,6,0,0,0,.17,1.9,4.51,4.51,0,0,0,.87,1.7c.42.49,1,1,1.42,1.46l3,3,6.37,6.35,6.83,6.81,1.77,1.77a15.92,15.92,0,0,0,1.82,1.69,4.67,4.67,0,0,0,2.29.77h42.09a18.79,18.79,0,0,0,2.93-.1,4.61,4.61,0,0,0,3.57-4c.05-.94,0-2,0-3V328q0-5.89,0-11.61a4.61,4.61,0,0,0-2.82-4.2,5.11,5.11,0,0,0-1.28-.32c-.43,0-.9,0-1.36,0H145.34a5.2,5.2,0,0,1-4.33-1.95L129.46,297l-9.52-10.64L116,282l-1.72-1.93a4.75,4.75,0,0,0-5.64-1,4.91,4.91,0,0,0-2,1.95A5.41,5.41,0,0,0,106.06,283.31Z" style="fill:#263238"></path><path d="M235,199.28a.6.6,0,0,1,0-.23l0-.69c0-.63,0-1.53,0-2.69,0-2.37,0-5.82-.06-10.19l0,.09-23.14-26.08.17.08-45.53,0-41.9,0,.18-.08c-9.15,10.72-17,19.87-22.75,26.67l0-.1c.1,5.44.17,9.74.23,12.72,0,1.45,0,2.58,0,3.37,0,.37,0,.65,0,.87a1.29,1.29,0,0,1,0,.29,1.11,1.11,0,0,1,0-.29c0-.22,0-.5,0-.87,0-.79-.06-1.92-.11-3.37-.09-3-.21-7.28-.37-12.72V186l0,0,22.62-26.77.07-.08h.11l41.9,0,45.53,0h.1l.07.08,23,26.2,0,0v0c0,4.37-.05,7.82-.06,10.19,0,1.16,0,2.06,0,2.69l0,.69A2.07,2.07,0,0,1,235,199.28Z" style="fill:#263238"></path><path d="M228.38,369l.47,0,1.41-.09a18.89,18.89,0,0,0,5.32-1.47,17,17,0,0,0,3.49-2.08,20.68,20.68,0,0,0,1.79-1.54,19.07,19.07,0,0,0,1.66-1.95,17.91,17.91,0,0,0,3.55-11.49c0-18.55,0-45.38-.09-78.53,0-16.58,0-34.74,0-54.24q0-14.61,0-30.21,0-7.78,0-15.8V159.47a13.07,13.07,0,0,0-.43-4,11.38,11.38,0,0,0-4.65-6.41,11,11,0,0,0-3.73-1.6,17.56,17.56,0,0,0-4.12-.3H102.28a11.4,11.4,0,0,0-4.52.82,11.07,11.07,0,0,0-6.2,6.42,12.19,12.19,0,0,0-.69,4.5v13.93q0,18.5,0,36.4c0,23.85,0,46.87,0,68.79s0,42.76,0,62.25q0,7.32,0,14.37c0,2.35-.17,4.71.72,6.83a11.33,11.33,0,0,0,10.21,7.33c2.2,0,4.41,0,6.57,0h12.73l78.53.08,21.35.05,5.56,0,1.89,0-1.89,0-5.56,0-21.35.05-78.53.08H108.32c-2.17,0-4.35,0-6.58,0a11.7,11.7,0,0,1-10.58-7.58,11,11,0,0,1-.72-3.45c-.07-1.18,0-2.34,0-3.52q0-7.05,0-14.37c0-19.49,0-40.33,0-62.25s0-44.94,0-68.79V158.92a12.5,12.5,0,0,1,.73-4.68,11.56,11.56,0,0,1,6.48-6.72,11.94,11.94,0,0,1,4.72-.86H233a18.28,18.28,0,0,1,4.23.31,11.7,11.7,0,0,1,3.89,1.67,12,12,0,0,1,4.85,6.7,13.71,13.71,0,0,1,.44,4.12c0,1.36,0,2.72,0,4.07V187.4q0,15.58,0,30.21c0,19.5,0,37.66,0,54.24,0,33.15-.06,60-.08,78.53A18.08,18.08,0,0,1,242.65,362a16.35,16.35,0,0,1-3.5,3.49,17.19,17.19,0,0,1-3.52,2.08,18.88,18.88,0,0,1-5.36,1.42C229,369,228.38,369,228.38,369Z" style="fill:#263238"></path><g style="opacity:0.30000000000000004"><path d="M105,216.08l92.49-48.93a65.86,65.86,0,0,1,11.56,6.7L104.25,233.11A66.47,66.47,0,0,1,105,216.08Z" style="fill:#fff"></path></g><g style="opacity:0.30000000000000004"><path d="M106.84,208.38l82.76-44.19c-1.78-.55-3.48-1-5-1.32L109.3,201.62A66,66,0,0,0,106.84,208.38Z" style="fill:#fff"></path></g></g><g id="freepik--device-2--inject-1587"><path d="M313.07,225.21c0-11.27,0-22.54,0-33.81,0-9.93,5-20.74,14.53-24.65a18.25,18.25,0,0,1,14,0,22.9,22.9,0,0,1,10.85,10.08c2.83,5,3.68,10.55,3.68,16.22V326.77c0,2.24,0,4.5,0,6.75.43,11.91,4.78,23.77,13,32.5,7.34,7.77,17.79,12.53,28.57,11.77,11.14-.79,20.82-7,27.44-15.77s9.69-19.69,9.72-30.51c0-4.33,0-8.66,0-13V272.7c0-3.22-5-3.22-5,0v58.85a49.49,49.49,0,0,1-2.41,15.27c-3.29,10-10.2,19-19.87,23.42a29.61,29.61,0,0,1-28.07-2.08c-9.17-5.75-15-15.73-17.34-26.16a60.87,60.87,0,0,1-1.09-13.13V194.72a51.78,51.78,0,0,0-.89-11.38c-2.43-10.81-10.68-21-22.11-22.69s-21.79,5.35-26.6,15.47a35.93,35.93,0,0,0-3.42,15.33v33.76c0,3.21,5,3.22,5,0Z" style="fill:#263238"></path><polygon points="441.8 281.23 448.99 261.77 448.99 229.21 417.71 229.21 416.93 261.92 423.99 281.23 441.8 281.23" style="fill:#263238"></polygon><rect x="419.58" y="210.47" width="27.76" height="18.74" style="fill:#e0e0e0"></rect><path d="M419.58,210.47s0,.13,0,.36,0,.59,0,1c0,.92,0,2.19.05,3.79,0,3.29.07,7.94.11,13.59l-.2-.21,27.76-.05-.26.26h0v-9.71c0-3.14,0-6.15,0-9l.24.24-19.94-.12-5.74-.06-1.54,0-.54,0a2.69,2.69,0,0,1,.49,0l1.49,0,5.68-.06,20.1-.12h.24v.24c0,2.86,0,5.87,0,9,0,1.56,0,3.16,0,4.79v4.92h0l-.26.26-27.76-.05h-.21v-.21c0-5.7.08-10.4.11-13.72,0-1.58,0-2.84,0-3.74l0-1A1.11,1.11,0,0,1,419.58,210.47Z" style="fill:#263238"></path><rect x="439.19" y="219.54" width="3.86" height="3.86" transform="translate(882.25 442.94) rotate(180)" style="fill:#263238"></rect><rect x="425.33" y="219.54" width="3.86" height="3.86" transform="translate(854.53 442.94) rotate(180)" style="fill:#263238"></rect><rect x="428.83" y="275.86" width="8.25" height="20.4" style="fill:#263238"></rect><polygon points="433.42 256.75 426.95 253.28 426.95 249.66 427.95 249.66 427.95 252.69 433.89 255.87 433.42 256.75" style="fill:#fff"></polygon><rect x="433.15" y="246.79" width="1" height="13.73" style="fill:#fff"></rect><polygon points="433.9 254.09 433.4 253.22 439.59 249.65 439.59 246.55 440.59 246.55 440.59 250.23 433.9 254.09" style="fill:#fff"></polygon><path d="M429.24,248.37a1.83,1.83,0,1,1-1.82-1.82A1.83,1.83,0,0,1,429.24,248.37Z" style="fill:#fff"></path><path d="M435.46,245.37a1.82,1.82,0,1,1-1.82-1.82A1.81,1.81,0,0,1,435.46,245.37Z" style="fill:#fff"></path><path d="M441.85,245.22A1.83,1.83,0,1,1,440,243.4,1.82,1.82,0,0,1,441.85,245.22Z" style="fill:#fff"></path><path d="M435.47,261.59a1.83,1.83,0,1,1-1.83-1.83A1.83,1.83,0,0,1,435.47,261.59Z" style="fill:#fff"></path><path d="M441.23,281.4a134.53,134.53,0,0,1-16.72,0,134.53,134.53,0,0,1,16.72,0Z" style="fill:#455a64"></path><path d="M299.66,210.47h22.11a4.77,4.77,0,0,1,4.77,4.77v27.62a0,0,0,0,1,0,0H294.89a0,0,0,0,1,0,0V215.24A4.77,4.77,0,0,1,299.66,210.47Z" style="fill:#263238"></path><rect x="306.87" y="206.3" width="7.68" height="4.17" style="fill:#263238"></rect><path d="M322.9,210.47c0,.14-5.46.26-12.19.26s-12.18-.12-12.18-.26,5.45-.26,12.18-.26S322.9,210.33,322.9,210.47Z" style="fill:#455a64"></path><rect x="233.94" y="242.86" width="155.56" height="228.83" rx="15.19" style="fill:#FF725E"></rect><path d="M374.3,471.7l.48,0c.32,0,.81,0,1.43-.12a15.42,15.42,0,0,0,5.31-1.72,16.21,16.21,0,0,0,3.3-2.46,15.71,15.71,0,0,0,2.94-4,14.9,14.9,0,0,0,1.58-5.55c.07-1,.07-2.11.06-3.22s0-2.25,0-3.42c0-18.8,0-46-.08-79.58,0-16.8,0-35.2,0-55q0-14.82,0-30.61,0-7.9,0-16v-8.17c0-1.37,0-2.76,0-4.12a15.75,15.75,0,0,0-.63-4,15.12,15.12,0,0,0-4.42-6.84,14.31,14.31,0,0,0-3.46-2.28,16.22,16.22,0,0,0-1.93-.78,14.35,14.35,0,0,0-2-.47,22.81,22.81,0,0,0-4.23-.22H249.15a16.49,16.49,0,0,0-4.64.74,15,15,0,0,0-9.58,9.59,15.83,15.83,0,0,0-.73,4.58v14.12q0,18.74,0,36.88c0,24.18,0,47.5,0,69.71s0,43.33,0,63.08v14.56a15,15,0,0,0,11.9,14.8,33.05,33.05,0,0,0,6.6.32h12.9l79.57.09,21.64,0,5.63,0,1.91,0s-.65,0-1.91,0l-5.63,0-21.64.05-79.57.08h-12.9a33.6,33.6,0,0,1-6.69-.32,15.69,15.69,0,0,1-6.2-2.87,15.42,15.42,0,0,1-6-12.32q0-7.14,0-14.56c0-19.75,0-40.86,0-63.08s0-45.53,0-69.71V258a16.64,16.64,0,0,1,.75-4.74,15.52,15.52,0,0,1,9.91-9.92,17,17,0,0,1,4.81-.77H372.53a24,24,0,0,1,4.31.22,16.43,16.43,0,0,1,2.1.49,16.72,16.72,0,0,1,2,.81,14.75,14.75,0,0,1,3.57,2.36,15.58,15.58,0,0,1,4.56,7.06,16.32,16.32,0,0,1,.65,4.15c0,1.39,0,2.76,0,4.14V270q0,8.12,0,16,0,15.78,0,30.61c0,19.76,0,38.16,0,55,0,33.59-.06,60.78-.08,79.58,0,1.17,0,2.32,0,3.42s0,2.19-.07,3.23a15.12,15.12,0,0,1-1.62,5.61,15.77,15.77,0,0,1-3,4,16,16,0,0,1-3.34,2.46,15,15,0,0,1-5.35,1.68,14,14,0,0,1-1.43.1Z" style="fill:#263238"></path><path d="M311.72,276.76h0a2.4,2.4,0,0,1-2.4-2.4V263.48a2.39,2.39,0,0,1,2.4-2.4h0a2.39,2.39,0,0,1,2.39,2.4v10.88A2.4,2.4,0,0,1,311.72,276.76Z" style="fill:#fff"></path><g style="opacity:0.30000000000000004"><path d="M357.82,451.46H332.44A6.46,6.46,0,0,1,326,445h0a6.46,6.46,0,0,1,6.46-6.46h25.38a6.46,6.46,0,0,1,6.46,6.46h0A6.46,6.46,0,0,1,357.82,451.46Z"></path></g><g style="opacity:0.30000000000000004"><path d="M316.58,451.46h0a6.45,6.45,0,0,1-6.45-6.45h0a6.46,6.46,0,0,1,6.45-6.46h0A6.46,6.46,0,0,1,323,445h0A6.46,6.46,0,0,1,316.58,451.46Z"></path></g></g><g id="freepik--Line--inject-1587"><path d="M331.84,138.71l-.39,0-1.15,0-4.4,0-16.18.08-24,0H277a6.44,6.44,0,0,0-1.72.12,4.11,4.11,0,0,0-2.55,2.16,4.85,4.85,0,0,0-.48,1.68c0,.57,0,1.22,0,1.84v3.78c0,2.54,0,5.11,0,7.72,0,20.84-.06,39.71-.08,53.39,0,6.81-.06,12.34-.08,16.19,0,1.88,0,3.36-.05,4.39,0,.49,0,.87,0,1.15s0,.39,0,.39a1.93,1.93,0,0,1,0-.39c0-.28,0-.66,0-1.15,0-1,0-2.51-.05-4.39,0-3.85,0-9.38-.08-16.19,0-13.68-.05-32.55-.08-53.39q0-3.92,0-7.72v-3.78c0-.63,0-1.23,0-1.89a5.23,5.23,0,0,1,.53-1.86,4.61,4.61,0,0,1,2.88-2.41,7,7,0,0,1,1.85-.15h8.72l24,.06,16.18.08,4.4,0,1.15,0Z" style="fill:#263238"></path><circle cx="331.36" cy="139.26" r="2.26" style="fill:#263238"></circle><circle cx="272.23" cy="231.78" r="2.26" style="fill:#263238"></circle></g><g id="freepik--Documents--inject-1587"><rect x="278.43" y="55.83" width="40.1" height="54.9" rx="4.51" style="fill:#fff"></rect><path d="M314,110.73a5.66,5.66,0,0,0,1.78-.42,4.6,4.6,0,0,0,1.72-1.37,4.45,4.45,0,0,0,.91-2.8c0-4.64-.05-11.3-.08-19.53,0-4.13,0-8.64,0-13.49,0-2.42,0-4.93,0-7.51V61.68a18.2,18.2,0,0,0-.06-2,4.19,4.19,0,0,0-.69-1.78,4.29,4.29,0,0,0-3.29-1.85c-1.37,0-2.8,0-4.22,0h-27.1a4.25,4.25,0,0,0-3.66,2.09,4.17,4.17,0,0,0-.59,2.09v2.3c0,3.06,0,6.08,0,9.05,0,5.93,0,11.65,0,17.11s0,10.63,0,15.48a11.22,11.22,0,0,0,.26,3.47,4.26,4.26,0,0,0,3.65,2.83c.51,0,1.08,0,1.62,0h3.16l19.53.08,5.31.05,1.38,0,.47,0-.47,0-1.38,0-5.31,0-19.53.08h-3.16c-.55,0-1.07,0-1.66,0a5,5,0,0,1-1.67-.47,4.79,4.79,0,0,1-2.34-2.62,5.08,5.08,0,0,1-.28-1.81c0-.6,0-1.2,0-1.8,0-4.85,0-10,0-15.48s0-11.18,0-17.11V60.26a4.69,4.69,0,0,1,.66-2.34,4.8,4.8,0,0,1,4.11-2.36H310c1.43,0,2.83,0,4.25,0a4.71,4.71,0,0,1,4.42,4,17.7,17.7,0,0,1,.06,2c0,1.33,0,2.64,0,3.93,0,2.58,0,5.09,0,7.51,0,4.85,0,9.36,0,13.49,0,8.23-.07,14.89-.09,19.53a4.54,4.54,0,0,1-2.79,4.26,4.43,4.43,0,0,1-1.35.33Z" style="fill:#263238"></path><path d="M313.24,71.85c0,.14-6.25.26-13.95.26s-14-.12-14-.26,6.25-.26,14-.26S313.24,71.7,313.24,71.85Z" style="fill:#263238"></path><path d="M313.24,66.53c0,.14-6.25.26-13.95.26s-14-.12-14-.26,6.25-.26,14-.26S313.24,66.38,313.24,66.53Z" style="fill:#263238"></path><path d="M313.24,76.77c0,.14-6.25.26-13.95.26s-14-.12-14-.26,6.25-.26,14-.26S313.24,76.62,313.24,76.77Z" style="fill:#263238"></path><path d="M313.24,81.69c0,.14-6.25.26-13.95.26s-14-.12-14-.26,6.25-.26,14-.26S313.24,81.55,313.24,81.69Z" style="fill:#263238"></path><path d="M313.24,86.61c0,.15-6.25.26-13.95.26s-14-.11-14-.26,6.25-.26,14-.26S313.24,86.47,313.24,86.61Z" style="fill:#263238"></path><path d="M313.24,91.53c0,.15-6.25.26-13.95.26s-14-.11-14-.26,6.25-.26,14-.26S313.24,91.39,313.24,91.53Z" style="fill:#263238"></path><path d="M313.24,96.46c0,.14-6.25.26-13.95.26s-14-.12-14-.26,6.25-.26,14-.26S313.24,96.31,313.24,96.46Z" style="fill:#263238"></path><path d="M301.64,101.38a64.92,64.92,0,0,1-8.15.26,64.92,64.92,0,0,1-8.15-.26,62.72,62.72,0,0,1,8.15-.26A62.72,62.72,0,0,1,301.64,101.38Z" style="fill:#263238"></path><rect x="670.09" y="251.46" width="40.1" height="54.9" rx="4.51" style="fill:#fff"></rect><path d="M705.68,306.36a5,5,0,0,0,1.78-.42,4.67,4.67,0,0,0,1.72-1.36,4.49,4.49,0,0,0,.91-2.8c0-4.64-.05-11.31-.08-19.54,0-4.12,0-8.64,0-13.48,0-2.43,0-4.93,0-7.52v-3.93a15.8,15.8,0,0,0-.06-2,4.14,4.14,0,0,0-.69-1.78,4.26,4.26,0,0,0-3.29-1.85c-1.37,0-2.8,0-4.22,0H674.6a4.27,4.27,0,0,0-4.25,4.18v2.3c0,3.07,0,6.09,0,9.05,0,5.94,0,11.66,0,17.11s0,10.63,0,15.48a11.22,11.22,0,0,0,.26,3.47,4.3,4.3,0,0,0,3.65,2.84c.51,0,1.09,0,1.62,0H679l19.53.08,5.31.05,1.38,0,.47,0-.47,0-1.38,0-5.31.05-19.53.08h-3.16c-.55,0-1.07,0-1.66,0a4.71,4.71,0,0,1-4-3.09,5,5,0,0,1-.28-1.81c0-.59,0-1.19,0-1.8,0-4.85,0-10,0-15.48s0-11.17,0-17.11V255.89a4.77,4.77,0,0,1,4.77-4.69h27.1c1.43,0,2.83,0,4.25,0a4.71,4.71,0,0,1,4.42,4.05,17.59,17.59,0,0,1,.06,2c0,1.33,0,2.64,0,3.93,0,2.59,0,5.09,0,7.52,0,4.84,0,9.36,0,13.48,0,8.23-.07,14.9-.09,19.54a4.57,4.57,0,0,1-1,2.89,4.49,4.49,0,0,1-3.14,1.7A3.47,3.47,0,0,1,705.68,306.36Z" style="fill:#263238"></path><path d="M704.9,267.48c0,.14-6.25.26-13.95.26s-13.94-.12-13.94-.26,6.24-.26,13.94-.26S704.9,267.34,704.9,267.48Z" style="fill:#263238"></path><path d="M704.9,262.16c0,.14-6.25.26-13.95.26S677,262.3,677,262.16s6.24-.26,13.94-.26S704.9,262,704.9,262.16Z" style="fill:#263238"></path><path d="M704.9,272.4c0,.15-6.25.26-13.95.26S677,272.55,677,272.4s6.24-.26,13.94-.26S704.9,272.26,704.9,272.4Z" style="fill:#263238"></path><path d="M704.9,277.32c0,.15-6.25.27-13.95.27s-13.94-.12-13.94-.27,6.24-.26,13.94-.26S704.9,277.18,704.9,277.32Z" style="fill:#263238"></path><path d="M704.9,282.25c0,.14-6.25.26-13.95.26s-13.94-.12-13.94-.26S683.25,282,691,282,704.9,282.1,704.9,282.25Z" style="fill:#263238"></path><path d="M704.9,287.17c0,.14-6.25.26-13.95.26s-13.94-.12-13.94-.26,6.24-.26,13.94-.26S704.9,287,704.9,287.17Z" style="fill:#263238"></path><path d="M704.9,292.09c0,.15-6.25.26-13.95.26s-13.94-.11-13.94-.26,6.24-.26,13.94-.26S704.9,292,704.9,292.09Z" style="fill:#263238"></path><path d="M693.3,297A127.71,127.71,0,0,1,677,297a127.71,127.71,0,0,1,16.29,0Z" style="fill:#263238"></path></g><g id="freepik--Character--inject-1587"><path d="M674.48,156a27.11,27.11,0,0,0-3.86-8.3,2.69,2.69,0,0,0,.74-3.85,3.87,3.87,0,0,0-1.07-6.31,2.54,2.54,0,0,0-.3-3.36,7.55,7.55,0,0,0-3.28-1.68l-7-2.18a5.11,5.11,0,0,0-6.46-2.81c-1.4-2.09-8-3.13-11-.41-11.26-9.9-18-9.35-27.83-5.73-2.45.9-5.9,3.47-6.8,5.91a27.08,27.08,0,0,0-6.13,2.1,5.67,5.67,0,0,0-3.17,2.92c-.46,1.4.62,3.3,2.07,3-1.73.9-3.57,1.89-4.51,3.6s-.45,4.34,1.41,4.92a31.91,31.91,0,0,0-4.32,9.48,4.21,4.21,0,0,0-.36.74,4,4,0,0,0,1.74,7.21,5.14,5.14,0,0,0,2.44,9.71,6.73,6.73,0,0,0,6.7,11.67,13.84,13.84,0,0,0,14.82,6,28.4,28.4,0,0,1,4.24-1.1c1.78-.18,3.59.33,5.36.06,3-.46,5.2-3.08,6.12-5.93,3.11-.33,6.34-.79,9.87-1.41,5.25,4.75,10.55.87,9.9-1.16,3.07-.17,4.66.24,7.49-.93a10.94,10.94,0,0,0,3.71-2.13l.44-.52a4.94,4.94,0,0,0-.5-6.81,1.11,1.11,0,0,1-.32-.8,5.71,5.71,0,0,1,3.53-.28,4.41,4.41,0,0,0,3.45-.64c.9-.8.71-2.68-.49-2.82a3.17,3.17,0,0,0,.16-3.41c1,.84,2.62.16,3.17-1A5.55,5.55,0,0,0,674.48,156Z" style="fill:#263238"></path><path d="M643.6,137.65l-16.07-7.1c-6.38-1.6-11.82,5.76-13.15,12.2-1.48,7.15-3,15.95-2.92,21.45a16.65,16.65,0,0,0,9.55,15s-.9,6.62-.9,6.62c.35,5.19,5.76,5.81,5.76,5.81,14.82,1.76,16.62-6.53,16.62-6.53l3.91-41.12C646.72,142,645.54,138.13,643.6,137.65Z" style="fill:#ae7461"></path><path d="M623.29,160.3a10,10,0,0,0-2.36-.78c-.38-.1-.73-.23-.76-.49a2,2,0,0,1,.42-1.1l1.54-2.75c2.16-3.91,3.78-7.15,3.62-7.24s-2,3-4.19,6.94c-.53,1-1,1.88-1.5,2.77a2.17,2.17,0,0,0-.41,1.47.94.94,0,0,0,.55.64,2.6,2.6,0,0,0,.63.19A10.41,10.41,0,0,0,623.29,160.3Z" style="fill:#263238"></path><path d="M621,179.16A36.11,36.11,0,0,0,634.8,176s-3.19,6.62-14.21,6.4Z" style="fill:#6f4439"></path><path d="M631.32,144.19c.09.42,1.61.44,3.33.9s3.08,1.15,3.36.81c.13-.16-.06-.57-.58-1.05a5.8,5.8,0,0,0-2.4-1.24,5.67,5.67,0,0,0-2.7-.07C631.65,143.71,631.28,144,631.32,144.19Z" style="fill:#263238"></path><path d="M616.9,142.54c.21.38,1.29.18,2.54.34s2.25.55,2.54.23c.13-.16,0-.52-.4-.91a3.57,3.57,0,0,0-2-.85,3.52,3.52,0,0,0-2.11.4C617,142,616.81,142.36,616.9,142.54Z" style="fill:#263238"></path><path d="M609,147.5a7.51,7.51,0,0,1,2.26-4.51,27,27,0,0,0,2.21-1.75c1.38-1.49,1.42-3.74,2.13-5.65a8.28,8.28,0,0,1,5.63-5c2.11-.53,4.42-.21,6.43-1,1.49-.61,2.69-1.81,4.22-2.34,3-1,6.11.76,8.64,2.61.32,2.19-1.2,3.9-2.67,5.54a7.64,7.64,0,0,1-5.9,2.51c-1.71-.06-3.65-.64-5,.46s-1.11,3.44-2.28,4.81c-1.68,1.94-5,.82-7.3,1.9-1.81.83-2.72,2.81-3.75,4.5s-2.7,3.41-4.67,3.13A22.65,22.65,0,0,1,609,147.5Z" style="fill:#263238"></path><path d="M635.88,133.26a39,39,0,0,1,14.32,4,7.07,7.07,0,0,1,3.35,2.83,6.89,6.89,0,0,1,.39,3.85c-.44,4.07-2.57,8.9-4.49,12.52l-5.38,2.55c-3.83-1.31-1.38-7.9-.86-11.27a8.06,8.06,0,0,1-4-7.53A8.93,8.93,0,0,1,635.88,133.26Z" style="fill:#263238"></path><path d="M644.28,157.59c.38-2.31,3.29-2.49,5.17-1.09,1,.77,1.74,2.15,1.36,4.61-1,6.56-7.4,4.19-7.38,4S643.83,160.3,644.28,157.59Z" style="fill:#ae7461"></path><path d="M645.82,162.93s.1.1.28.22a1.2,1.2,0,0,0,.85.15,2.87,2.87,0,0,0,1.7-2.34,3.77,3.77,0,0,0-.06-1.68,1.33,1.33,0,0,0-.72-1,.59.59,0,0,0-.73.2c-.11.17-.09.31-.13.32s-.12-.14,0-.4a.78.78,0,0,1,.32-.37A.92.92,0,0,1,648,158a1.64,1.64,0,0,1,1,1.21,4,4,0,0,1,.11,1.89,3,3,0,0,1-2.11,2.57,1.23,1.23,0,0,1-1-.34C645.81,163.09,645.79,162.94,645.82,162.93Z" style="fill:#6f4439"></path><path d="M629.16,154.59a1.44,1.44,0,0,0,1.18,1.63,1.39,1.39,0,0,0,1.65-1.08,1.44,1.44,0,0,0-1.18-1.63A1.37,1.37,0,0,0,629.16,154.59Z" style="fill:#263238"></path><path d="M616,153.11a1.43,1.43,0,0,0,1.17,1.63,1.38,1.38,0,0,0,1.65-1.08,1.44,1.44,0,0,0-1.17-1.63A1.38,1.38,0,0,0,616,153.11Z" style="fill:#263238"></path><path d="M616.57,147.55c.12.23,1.28-.41,2.68-.11s2.23,1.31,2.42,1.14,0-.46-.35-.93a3.31,3.31,0,0,0-1.89-1.16,3.24,3.24,0,0,0-2.18.34C616.73,147.12,616.51,147.45,616.57,147.55Z" style="fill:#263238"></path><path d="M629.9,150c.17.24,1.47-.58,3.16-.41s2.83,1.22,3,1-.05-.5-.55-1a4.11,4.11,0,0,0-2.4-1.08,4,4,0,0,0-2.55.6C630,149.52,629.82,149.9,629.9,150Z" style="fill:#263238"></path><path d="M629.63,164.2a2.12,2.12,0,0,0-2-1.86,2.21,2.21,0,0,0-1.83,1,2.67,2.67,0,0,0-.36,2.08v.15a2.4,2.4,0,0,0,2.61.91A2.26,2.26,0,0,0,629.63,164.2Z" style="fill:#6f4439"></path><path d="M624.33,165.45c0-.24,1.64,0,3-1.14s1.51-2.92,1.74-2.9.25.44.14,1.17a4.06,4.06,0,0,1-1.36,2.43,3.56,3.56,0,0,1-2.52.86C624.66,165.81,624.3,165.56,624.33,165.45Z" style="fill:#263238"></path><path d="M590.79,441.56l2,20.45s-22.29,8.33-22.54,12.45l42.15.11,0-3.08L610.57,461,608,440.53Z" style="fill:#455a64"></path><path d="M605.44,458.84a1.76,1.76,0,0,1,1.22,2,1.69,1.69,0,0,1-2,1.23,1.84,1.84,0,0,1-1.28-2.13,1.75,1.75,0,0,1,2.2-1.05" style="fill:#e0e0e0"></path><path d="M612.36,474.57l0-3.08-40.43.78s-1.92.84-1.7,2.19Z" style="fill:#263238"></path><path d="M592.05,461.79c0,.21,1.06.31,2.1,1s1.59,1.56,1.79,1.48-.13-1.3-1.4-2.1S592,461.6,592.05,461.79Z" style="fill:#263238"></path><path d="M587.53,463.68c0,.2.87.56,1.59,1.44S590,467,590.25,467s.34-1.21-.57-2.29S587.54,463.47,587.53,463.68Z" style="fill:#263238"></path><path d="M585,469.1c.19,0,.48-1-.07-2.16s-1.53-1.61-1.61-1.44.52.79,1,1.75S584.77,469.08,585,469.1Z" style="fill:#263238"></path><path d="M590.56,456.87c.09.2,1.05-.1,2.24,0s2.12.45,2.23.27-.78-.93-2.19-1S590.45,456.71,590.56,456.87Z" style="fill:#263238"></path><path d="M642.58,442.13l1.81,20.11s-21.95,8.05-22.21,12.1l41.4.36v-3l-1.68-10.34-2.43-20.1Z" style="fill:#455a64"></path><path d="M656.87,459.2a1.73,1.73,0,0,1,1.19,2,1.65,1.65,0,0,1-1.95,1.19,1.83,1.83,0,0,1-1.25-2.1,1.73,1.73,0,0,1,2.17-1" style="fill:#e0e0e0"></path><path d="M663.58,474.7v-3l-39.72.52s-1.89.82-1.68,2.15Z" style="fill:#263238"></path><path d="M643.7,462c0,.21,1,.31,2.06,1s1.56,1.54,1.75,1.46-.12-1.28-1.36-2.07S643.66,461.83,643.7,462Z" style="fill:#263238"></path><path d="M639.25,463.84c0,.2.85.56,1.55,1.44s.9,1.8,1.1,1.79.35-1.17-.54-2.25S639.26,463.65,639.25,463.84Z" style="fill:#263238"></path><path d="M636.71,469.15c.19.05.48-1-.05-2.12s-1.49-1.59-1.58-1.42.51.78.93,1.72S636.5,469.13,636.71,469.15Z" style="fill:#263238"></path><path d="M642.27,457.18c.08.19,1-.09,2.2,0s2.08.46,2.19.28-.77-.92-2.14-1S642.16,457,642.27,457.18Z" style="fill:#263238"></path><path d="M589.88,263.67s-10,28.94-10.34,50.46-.69,55.75,3.79,93.51,6.55,52.93,6.55,52.93h22.73a442.84,442.84,0,0,0,2.07-44.81c-.34-21.18-2-27.88,0-51.17s5.25-37.28,8.63-44.34c0,0,9.39-11.15,10.08-26.46a74.54,74.54,0,0,0-4.73-28.45Z" style="fill:#263238"></path><path d="M610.08,304.26c.38,1.17,7.13,48.6,12,69.53s10.4,26.46,11.36,43.48c1.1,19.58,6.48,43.3,6.48,43.3h24.21s-3.41-36.19-6.81-64.47-8.32-63.16-7.57-73.62,2.65-23.39,0-38-8.37-18.53-8.37-18.53L620.89,265Z" style="fill:#263238"></path><path d="M632.87,277.13a4.24,4.24,0,0,1,.38.74,15.35,15.35,0,0,1,.82,2.23,29.5,29.5,0,0,1,.8,8.67,57.36,57.36,0,0,1-2,12.76,40.47,40.47,0,0,1-2.65,7.18,50.94,50.94,0,0,1-4.37,7c-3.29,4.53-4.92,9.69-6.15,14.36a103.86,103.86,0,0,0-2.3,12.65c-.44,3.65-.71,6.6-.91,8.65l-.24,2.35a7.79,7.79,0,0,1-.11.82,4,4,0,0,1,0-.83c0-.58.08-1.37.14-2.36.14-2.05.36-5,.76-8.67a96.42,96.42,0,0,1,2.2-12.73,60.85,60.85,0,0,1,2.29-7.29,34.79,34.79,0,0,1,1.69-3.69,37.82,37.82,0,0,1,2.2-3.55,50.88,50.88,0,0,0,4.35-6.88,41.31,41.31,0,0,0,2.64-7.08,58.89,58.89,0,0,0,2.08-12.66,31,31,0,0,0-.63-8.61,17.1,17.1,0,0,0-.73-2.23A5.49,5.49,0,0,1,632.87,277.13Z" style="fill:#455a64"></path><path d="M642.49,185.06l-18.79-1.5s-21,16.69-25.27,38-9.2,42.53-9.2,42.53l38.25,4.71a44.17,44.17,0,0,0,12-.16l4-.6-3.28-13.51s6.06-25.56,8.43-35.19C653.75,198.41,642.49,185.06,642.49,185.06Z" style="fill:#FF725E"></path><g style="opacity:0.30000000000000004"><path d="M606.45,225.71,590.94,256.1c4-.14,6.88-1.81,9.61-4.76A43.55,43.55,0,0,0,607,241.19c4.62-9.07,9.06-18.52,10-28.65A111.23,111.23,0,0,0,606.45,225.71Z"></path></g><path d="M648.08,191.83S667.56,237.1,666,243.11c-1.79,6.77-7.81,9.28-11.93,8s-14.49-8.54-14.49-8.54Z" style="fill:#FF725E"></path><path d="M541.54,235.77v-41a1.79,1.79,0,0,1,1.68-1.88h26.53l6.26-5.74a4.17,4.17,0,0,1,2.81-1.12h25.86a3.38,3.38,0,0,1,3.18,3.55V234.1a3.38,3.38,0,0,1-3.18,3.55H543.22A1.79,1.79,0,0,1,541.54,235.77Z" style="fill:#455a64"></path><path d="M546.56,212.89a9.7,9.7,0,0,1,1.76.71,8.69,8.69,0,0,0-1.44-3.33,10,10,0,0,1-1.22-2.77c-.14-1.88,1.3-3.26,2.49-1.14a16.53,16.53,0,0,0,2.34,2.87c2.64,2.57,11.16,11.85,11.16,11.85l-6.58,8.59s-7.88-.46-12.53-1.88c-3.5-1.07-4.87-2.38-4.9-3.2s1.36-1.3,1.36-1.3a3.9,3.9,0,0,1-.7-2.34c.17-1.09,1.66-1.62,1.66-1.62a5.6,5.6,0,0,1-.53-2.1c0-1.12,1.37-2.46,1.37-2.46s-2.32-.87-1-2.89c.37-.57,1.46-.86,3.47-.22C544.49,212.06,546.56,212.89,546.56,212.89Z" style="fill:#ae7461"></path><path d="M560.42,218.15c.23.33,22.59,13.12,22.59,13.12s10.47-19.92,13.82-26.88,7.39-16.65,12.74-19.66,14.13-1.17,14.13-1.17l-3.57,25.93-8.68,18.7s-10.3,20.59-16,25.38c-5.15,4.36-13.14,2.61-16.78.48s-27.54-22.71-27.54-22.71Z" style="fill:#FF725E"></path><path d="M620.13,209.79a2.82,2.82,0,0,1-.22.62l-.74,1.73c-.65,1.5-1.62,3.66-2.86,6.31-2.47,5.3-6,12.56-10.24,20.43a80.58,80.58,0,0,1-6.47,10.82,22.3,22.3,0,0,1-3.86,4,13.48,13.48,0,0,1-4.28,2.24,14.43,14.43,0,0,1-6.92.36,13,13,0,0,1-1.82-.5,2.81,2.81,0,0,1-.61-.25c0-.05.86.28,2.47.55a14.71,14.71,0,0,0,6.77-.51,13.42,13.42,0,0,0,4.12-2.22,23,23,0,0,0,3.75-3.91,84.39,84.39,0,0,0,6.39-10.77c4.21-7.86,7.82-15.09,10.37-20.35l3-6.23.82-1.69A4.09,4.09,0,0,1,620.13,209.79Z" style="fill:#263238"></path><path d="M649.18,210.38a6.4,6.4,0,0,1-.11,1.49c-.12.95-.31,2.33-.58,4-.53,3.39-1.32,8.07-2.3,13.21s-2,9.78-2.74,13.12c-.4,1.67-.73,3-1,3.94a7.07,7.07,0,0,1-.45,1.43,8.88,8.88,0,0,1,.26-1.47c.21-1,.49-2.37.83-4,.7-3.35,1.62-8,2.59-13.14s1.81-9.71,2.45-13.17c.3-1.61.55-3,.74-4A9.47,9.47,0,0,1,649.18,210.38Z" style="fill:#263238"></path><path d="M665.32,148.3a18.79,18.79,0,0,1,8.67,1.87,8.86,8.86,0,0,1,4.88,7c.12,3-2.21,6.07-5.2,6.15a7,7,0,0,1-3.07,13.37c3.2,1.55,3.34,6.47,1,9.19s-6,3.72-9.52,4.27a12.94,12.94,0,0,1-23.26-1.06,7.68,7.68,0,0,1-.27-15.34,6.21,6.21,0,0,1,1.62-5.64,6.82,6.82,0,0,1,6.53-2.27s3.33,0,4.43-2.24,1.78-7.73,1.78-7.73Z" style="fill:#263238"></path></g></svg>
