<svg xmlns="http://www.w3.org/2000/svg" viewBox="0 0 500 500"><g id="freepik--Floor--inject-1135"><path id="freepik--floor--inject-1135" d="M87.67,454.42C-2,402.65-2,318.73,87.67,267s235-51.76,324.66,0,89.65,135.68,0,187.45S177.32,506.18,87.67,454.42Z" style="fill:#fafafa"></path></g><g id="freepik--Shadow--inject-1135"><path id="freepik--shadow--inject-1135" d="M320.79,478.84a9.18,9.18,0,0,1-4.52-1.14l-26-15a5.68,5.68,0,0,1,0-10.15l123.13-71.24a9.11,9.11,0,0,1,4.52-1.14,9,9,0,0,1,4.52,1.15l26.06,15a5.7,5.7,0,0,1,0,10.16L325.32,477.7A9.19,9.19,0,0,1,320.79,478.84Z" style="fill:#e0e0e0"></path><path id="freepik--shadow--inject-1135" d="M70.47,408.26,317.76,265.48a14.75,14.75,0,0,1,13.28,0L451.77,335.2c5,2.86,5,7.55,0,10.41L206.08,487.47a13,13,0,0,1-11.72,0L70.47,415.93C66.82,413.82,66.81,410.37,70.47,408.26Z" style="fill:#e0e0e0"></path></g><g id="freepik--Graphics--inject-1135"><g id="freepik--Like--inject-1135"><path d="M393.1,100.14s-3.18-7-3.41-8,.92-5.43,1.05-6.24-3.64-1.75-5.34,1a12,12,0,0,0-2,8l-9.31-1.57a2.91,2.91,0,0,0-3.27,2.45,3.19,3.19,0,0,0,1.06,3,2.64,2.64,0,0,0-2.31,2.3,3,3,0,0,0,1.79,3.2,3.62,3.62,0,0,0-1,2.12c-.17,1,.85,2.94,2.16,3.16a5.73,5.73,0,0,0-.76,2,3.27,3.27,0,0,0,2.93,3.5l15.41,2.6Z" style="fill:#e0e0e0"></path><path d="M395.4,100,392,120.29l6.72,1.13,3.41-20.27Zm.31,19a1.42,1.42,0,1,1,1.42-1.42A1.42,1.42,0,0,1,395.71,119Z" style="fill:#e0e0e0"></path></g><g id="freepik--like--inject-1135"><path d="M463.22,266.58l-6.11-1.34a.55.55,0,0,1-.35-.24.57.57,0,0,1-.08-.42l4.05-18.47a.54.54,0,0,1,.66-.42l6.12,1.33a.57.57,0,0,1,.34.25.56.56,0,0,1,.08.42l-4.05,18.47a.54.54,0,0,1-.56.43Zm-1.53-19.69-3.8,17.39,5,1.1L466.73,248Zm-6.13,15.77-14-3.07a3.54,3.54,0,0,1-3-4,5.87,5.87,0,0,1,.53-1.47,3.7,3.7,0,0,1-1.59-3.38,4.56,4.56,0,0,1,.69-1.64,3.33,3.33,0,0,1-1.19-3.27,3,3,0,0,1,1.79-2.24,3.42,3.42,0,0,1-.41-2.56,3.24,3.24,0,0,1,3.77-2.53l7.8,1.71a11.49,11.49,0,0,1,2.27-6.85,4.22,4.22,0,0,1,5-1.43c1,.42.94,1,.89,1.22s-.14.56-.27,1a22.61,22.61,0,0,0-1,4.45c.12.69,1.71,4.81,2.75,7.42a.5.5,0,0,1,0,.32l-3.47,15.88a.57.57,0,0,1-.57.43Zm.27-23.86c-.14-.81.39-2.79,1-4.93.1-.34.18-.63.23-.82a2.76,2.76,0,0,0-1.48-.33,3,3,0,0,0-2.44,1.27,10.46,10.46,0,0,0-2.06,6.88.56.56,0,0,1-.2.45.53.53,0,0,1-.47.11l-8.49-1.85a2.12,2.12,0,0,0-2.45,1.68,2.39,2.39,0,0,0,.68,2.26.55.55,0,0,1,.13.6.54.54,0,0,1-.5.35,1.85,1.85,0,0,0-1.69,1.58,2.16,2.16,0,0,0,1.19,2.4.55.55,0,0,1,.31.44.54.54,0,0,1-.2.5,2.81,2.81,0,0,0-.79,1.58,2.47,2.47,0,0,0,1.42,2.34.56.56,0,0,1,.33.87,4.76,4.76,0,0,0-.7,1.64,2.47,2.47,0,0,0,2.12,2.68l13.49,3,3.32-15.17C458.11,245.13,456,239.77,455.83,238.8Z" style="fill:#e0e0e0"></path></g><g id="freepik--like--inject-1135"><path d="M348.59,72.41a.73.73,0,0,1-.75-.57l-5.3-24.24a.75.75,0,0,1,.09-.55.8.8,0,0,1,.46-.32l8-1.75a.71.71,0,0,1,.86.55l5.31,24.24a.75.75,0,0,1-.1.55.73.73,0,0,1-.46.32l-8,1.75ZM344.11,48l5,22.82,6.6-1.45-5-22.81Zm14.54,19.26a.73.73,0,0,1-.75-.57l-4.56-20.82a.7.7,0,0,1,0-.43c1.36-3.42,3.45-8.83,3.59-9.73s-.84-4.34-1.26-5.84c-.17-.62-.31-1.11-.36-1.35s-.09-1.06,1.17-1.61a5.55,5.55,0,0,1,6.63,1.89,15.08,15.08,0,0,1,3,9l10.24-2.24a4.26,4.26,0,0,1,4.95,3.32,4.53,4.53,0,0,1-.54,3.36,3.93,3.93,0,0,1,2.35,2.93,4.37,4.37,0,0,1-1.56,4.29,6.18,6.18,0,0,1,.9,2.16A4.9,4.9,0,0,1,380.37,56a7.49,7.49,0,0,1,.7,1.92,4.65,4.65,0,0,1-3.88,5.26l-18.42,4Zm-3.84-21.49,4.36,19.9,17.71-3.88a3.23,3.23,0,0,0,2.77-3.52,6.68,6.68,0,0,0-.91-2.15.69.69,0,0,1-.09-.68.73.73,0,0,1,.52-.46c1.11-.24,2.05-2.21,1.86-3.07a3.65,3.65,0,0,0-1-2.07.73.73,0,0,1-.26-.66.7.7,0,0,1,.41-.57,2.85,2.85,0,0,0,1.56-3.15,2.42,2.42,0,0,0-2.22-2.07.74.74,0,0,1-.66-.47.75.75,0,0,1,.18-.79,3.11,3.11,0,0,0,.88-3A2.77,2.77,0,0,0,376.67,37L365.54,39.4a.73.73,0,0,1-.62-.15.71.71,0,0,1-.26-.59,13.79,13.79,0,0,0-2.71-9,3.93,3.93,0,0,0-3.2-1.67,3.5,3.5,0,0,0-1.93.44c.06.25.16.63.29,1.08.79,2.8,1.48,5.4,1.3,6.47C358.2,37.22,355.41,44.25,354.81,45.77Z" style="fill:#e0e0e0"></path></g><g id="freepik--like--inject-1135"><path d="M96.64,53.35S98,45.55,98,44.42s-2.32-5.22-2.67-6,3.2-2.7,5.6-.42a12.46,12.46,0,0,1,4,7.47l8.93-4a3,3,0,0,1,3.9,1.61,3.33,3.33,0,0,1-.28,3.26,2.72,2.72,0,0,1,2.91,1.71,3.08,3.08,0,0,1-1,3.67A3.75,3.75,0,0,1,121,53.6c.43,1-.09,3.17-1.35,3.73a5.92,5.92,0,0,1,1.29,1.86,3.38,3.38,0,0,1-2,4.26L104.09,70Z" style="fill:#e0e0e0"></path><path d="M94.3,53.81l-6.43,2.88,8.67,19.43L103,73.25Zm4.12,19.11a1.26,1.26,0,1,1,1.26-1.26A1.25,1.25,0,0,1,98.42,72.92Z" style="fill:#e0e0e0"></path></g><g id="freepik--Heart--inject-1135"><path d="M437,78.3a.81.81,0,0,1-.67-.35l-2.62-3.83h0c-2-2.94-7.36-10.75-4.2-18.17a8.1,8.1,0,0,1,15.53,2.64A8.1,8.1,0,0,1,457.72,68c-3.16,7.42-12.49,9-16,9.57l-4.57.77Zm-1.95-5.1,2.33,3.39,4.06-.68c3.27-.54,12-2,14.77-8.6a6.46,6.46,0,0,0-3.41-8.45,6.48,6.48,0,0,0-8.12,2.64.8.8,0,0,1-1,.33.81.81,0,0,1-.47-1A6.47,6.47,0,0,0,431,56.59c-2.81,6.6,2.17,13.87,4,16.61Z" style="fill:#BA68C8"></path></g><g id="freepik--heart--inject-1135"><path d="M50.75,82h-.11l-4.59-.63c-3.53-.48-12.9-1.76-16.28-9.08a8.09,8.09,0,0,1,3.94-10.72,8.17,8.17,0,0,1,8.44,1,8.1,8.1,0,0,1,15.44-3.1c3.38,7.32-1.73,15.28-3.65,18.28l-2.5,3.9A.81.81,0,0,1,50.75,82ZM37.13,62.44a6.6,6.6,0,0,0-2.73.6,6.45,6.45,0,0,0-3.15,8.55c3,6.52,11.73,7.71,15,8.16h0l4.08.56,2.22-3.47c1.79-2.79,6.54-10.21,3.54-16.72a6.47,6.47,0,0,0-12,4.64.82.82,0,0,1-1.47.68A6.43,6.43,0,0,0,37.13,62.44Z" style="fill:#BA68C8"></path></g></g><g id="freepik--Post--inject-1135"><g id="freepik--post--inject-1135"><g id="freepik--dark-window--inject-1135"><path d="M106.18,346.73V138.15a7.24,7.24,0,0,1,1.07-3.55L102.7,132a7.38,7.38,0,0,0-1.08,3.57V344.16a2.39,2.39,0,0,0,1.37,2.18l.12.07,4.26,2.4A2.37,2.37,0,0,1,106.18,346.73Z" style="fill:#e0e0e0"></path><path d="M108.61,348.65a1.93,1.93,0,0,1-1.93-1.93V138.14a7.44,7.44,0,0,1,3.33-5.75L277.57,35.8a2.85,2.85,0,0,1,1.34-.41,1.46,1.46,0,0,1,.6.12l.12.07v0l.19.11h0s0,0,.05.07l0,.06.05,0,.09.12a2.3,2.3,0,0,1,.18.4c0,.05,0,.1,0,.13l0,.05.09.24a1.3,1.3,0,0,1,0,.15,3.78,3.78,0,0,1,0,.45V246a7.38,7.38,0,0,1-3.32,5.77L115.34,345.08l-5.68,3.28-.15.07A1.93,1.93,0,0,1,108.61,348.65Zm10-206.29V303.22l149.62-86.3V56.05Z" style="fill:#fafafa"></path><path d="M278.91,35.89a.9.9,0,0,1,.37.07l0,0,.18.09.06.08,0,0,0,0,0,0,0,0s0,.09.07.13l0,0,.17.48a.19.19,0,0,1,0,.08v0c0,.11,0,.23,0,.34V246a6.89,6.89,0,0,1-3.07,5.33L115.09,344.64l-5.45,3.16-.37.19a1.4,1.4,0,0,1-.66.16,1.43,1.43,0,0,1-1.43-1.43V138.14a6.92,6.92,0,0,1,3.07-5.32L277.82,36.24a2.29,2.29,0,0,1,1.09-.35M118.16,304.09l1.5-.87,148.62-85.73.5-.29v-162l-1.5.86L118.66,141.78l-.5.29v162M278.91,34.89a3.23,3.23,0,0,0-1.59.48L109.76,132a7.93,7.93,0,0,0-3.58,6.19V346.72a2.43,2.43,0,0,0,2.43,2.43,2.48,2.48,0,0,0,1.13-.28h0l5.83-3.37,161.73-93.27a7.91,7.91,0,0,0,3.57-6.2V37.43c0-.15,0-.3,0-.45a1.65,1.65,0,0,0-.07-.32s0,0,0-.08a1.41,1.41,0,0,0-.08-.31,1.75,1.75,0,0,0-.21-.46.57.57,0,0,0-.12-.18.49.49,0,0,0-.11-.14,1,1,0,0,0-.23-.23l0,0a1.92,1.92,0,0,0-.31-.18,2,2,0,0,0-.81-.17ZM119.16,302.36V142.65L267.78,56.92V216.63L119.16,302.36Z" style="fill:#e0e0e0"></path><path d="M277.32,35.37,109.76,132a7.32,7.32,0,0,0-2.52,2.65L102.7,132a7.12,7.12,0,0,1,2.49-2.61L272.76,32.79a2.5,2.5,0,0,1,2.59-.22c.64.4,3.61,2.08,4.36,2.49A2.55,2.55,0,0,0,277.32,35.37Z" style="fill:#f0f0f0"></path><path d="M275.07,45.81l1.55-3.27a1,1,0,0,0,0-1c-.18-.18-.48,0-.66.38l-1.55,3.27-1.54-1.48c-.19-.18-.48,0-.66.38a1,1,0,0,0,0,1l1.54,1.48-1.54,3.27a1,1,0,0,0,0,1,.26.26,0,0,0,.33,0,.91.91,0,0,0,.33-.4l1.54-3.27L276,48.7a.28.28,0,0,0,.33,0,.89.89,0,0,0,.33-.41,1,1,0,0,0,0-1Z" style="fill:#fafafa"></path><polygon points="267.78 216.63 263.9 214.38 119.16 297.88 119.16 302.36 267.78 216.63" style="fill:#f0f0f0"></polygon><polygon points="267.78 56.92 263.9 59.16 263.9 214.38 267.78 216.63 267.78 56.92" style="fill:#e0e0e0"></polygon></g><g id="freepik--Comments--inject-1135"><path d="M139.82,301.75l40.88-23.53c1-.59,1.86-.17,1.86.94a4,4,0,0,1-1.86,3.09l-40.88,23.53c-1,.6-1.86.17-1.86-.94A4,4,0,0,1,139.82,301.75Z" style="fill:#e0e0e0"></path><path d="M139.32,308.77l38.75-22.3c.75-.43,1.36-.31,1.36.27a2.67,2.67,0,0,1-1.35,1.87l-38.77,22.61c-.75.44-1.35.25-1.35-.43A2.75,2.75,0,0,1,139.32,308.77Z" style="fill:#e0e0e0"></path><path d="M127.85,303.76c4-2.2,7.05-.09,6.81,4.7s-3.7,10.46-7.7,12.66-7,.1-6.8-4.7S123.85,306,127.85,303.76Z" style="fill:#BA68C8"></path><g style="opacity:0.4"><path d="M127.85,303.76c4-2.2,7.05-.09,6.81,4.7s-3.7,10.46-7.7,12.66-7,.1-6.8-4.7S123.85,306,127.85,303.76Z" style="fill:#fff"></path></g><path d="M127.32,307.06c1-.6,1.87-.12,1.87,1.07a4.12,4.12,0,0,1-1.87,3.23c-1,.6-1.86.12-1.86-1.07A4.11,4.11,0,0,1,127.32,307.06Z" style="fill:#fff"></path><path d="M131,313.87c0-2-1.37-2.82-3.06-1.85l-1.06.61a6.8,6.8,0,0,0-3.07,5.31v.53s.73,1.48,3.6-.21a8,8,0,0,0,3.59-3.94Z" style="fill:#fff"></path><path d="M120.14,332.58c0,1.23.94,1.69,2.09,1l116-67a4.42,4.42,0,0,0,2.09-3.43c0-1.23-.93-1.68-2.09-1l-116,67A4.47,4.47,0,0,0,120.14,332.58Z" style="fill:#e0e0e0"></path><path d="M214.69,256.7l4.62-2.65c.85-.5,1.55-.15,1.55.77a3.32,3.32,0,0,1-1.55,2.56L214.69,260c-.85.49-1.55.15-1.55-.77A3.34,3.34,0,0,1,214.69,256.7Z" style="fill:#e0e0e0"></path><path d="M238.69,242.86l4.62-2.66c.85-.49,1.55-.14,1.55.78a3.32,3.32,0,0,1-1.55,2.56l-4.62,2.66c-.85.49-1.54.14-1.54-.78A3.31,3.31,0,0,1,238.69,242.86Z" style="fill:#e0e0e0"></path><path d="M261.8,229.51l4.61-2.65c.86-.5,1.55-.15,1.55.77a3.29,3.29,0,0,1-1.55,2.56l-4.62,2.66c-.85.49-1.54.15-1.54-.78A3.31,3.31,0,0,1,261.8,229.51Z" style="fill:#e0e0e0"></path><path d="M208.09,265.57a.32.32,0,0,1-.16,0l-.87-.47-.25-.12a2.28,2.28,0,0,1-1.62-2.54,2.8,2.8,0,0,1,1.22-2.42,1.08,1.08,0,0,1,1.57.82,3.93,3.93,0,0,1,1-2.32,1.3,1.3,0,0,1,1.32-.24,1.35,1.35,0,0,1,.71,1.18c.14,1.45-.74,2.88-1.45,4-.13.19-.22.34-.3.48l-.87,1.48A.33.33,0,0,1,208.09,265.57Z" style="fill:#BA68C8"></path><path d="M234.6,244.81c0-.59-.42-.83-.93-.53l-5.62,3.24a2,2,0,0,0-.92,1.6V253c0,.59.41.83.93.54l1.55-.89-.05,1.33a.1.1,0,0,0,.17.06l2.29-2.76,1.65-.95a2,2,0,0,0,.93-1.59Z" style="fill:#BA68C8"></path><path d="M258.77,232.84l-3.7-1.15v2a8.66,8.66,0,0,0-3.66,2.94c-2,3.05-.57,4.79.12,4.92,0,0-1.08-.74.11-2.92a6.61,6.61,0,0,1,3.43-2.57v2.24Z" style="fill:#BA68C8"></path></g></g></g><g id="freepik--Plants--inject-1135"><g id="freepik--plants--inject-1135"><path d="M78.35,403.62a.51.51,0,0,1-.26-.36c-4.15-21-23.82-34.55-32.22-40.32-1.36-.93-2.43-1.67-3.13-2.22a10.47,10.47,0,0,1-4.28-9.37,9,9,0,0,1,5.62-7c7.79-3.46,21.47,5.23,31.15,19.78,13.55,20.38,9.88,36.83,9.84,37a.57.57,0,0,1-.33.38l-5.95,2.2-.21,0A.48.48,0,0,1,78.35,403.62Zm-4-38.95C65,350.55,51.85,342,44.51,345.28a7.89,7.89,0,0,0-5,6.21,9.42,9.42,0,0,0,3.89,8.4c.67.53,1.73,1.26,3.07,2.18,8.42,5.78,28,19.26,32.53,40.38l5.09-1.89C84.49,398.37,86.67,383.22,74.34,364.67Z" style="fill:#BA68C8"></path><path d="M82,402.44H82a.53.53,0,0,0,.48-.58c-2.11-24.86-21.76-47-33.83-50.72a.53.53,0,0,0-.31,1c11.93,3.69,31.08,26.22,33.09,49.8A.53.53,0,0,0,82,402.44Z" style="fill:#BA68C8"></path><path d="M84.53,401.49a.66.66,0,0,0,.23,0l4-1.68a.52.52,0,0,0,.31-.38c0-.25,4.9-24.71-3.78-56.09-4.42-16-15.54-30.88-26.45-35.41-5.24-2.18-10.16-2-14.61.5-2.51,1.42-4,3.28-4.38,5.53-1.08,6.22,6.12,14.56,13.75,23.4,5.33,6.19,10.85,12.58,13.67,18.44a.53.53,0,0,0,1-.46c-2.89-6-8.45-12.44-13.83-18.67C47,328,39.91,319.82,40.91,314.1c.33-2,1.6-3.51,3.86-4.79,4.15-2.34,8.75-2.49,13.67-.44,10.63,4.41,21.5,19,25.84,34.71,8.12,29.36,4.32,52.56,3.81,55.32l-3.74,1.57a.53.53,0,0,0,.18,1Z" style="fill:#BA68C8"></path><path d="M84,386.28h0a.53.53,0,0,0,.52-.54C83.7,347,59.11,318.5,52.23,313.88a.53.53,0,0,0-.74.15.52.52,0,0,0,.15.73c6.78,4.56,31,32.71,31.85,71A.53.53,0,0,0,84,386.28Z" style="fill:#BA68C8"></path></g></g><g id="freepik--social-media-icons--inject-1135"><g id="freepik--social-icon--inject-1135"><path d="M42.88,119.44l22.46-13a7.71,7.71,0,0,1,7,0l2.84,1.64a7.72,7.72,0,0,1,3.48,6v25.93a7.72,7.72,0,0,1-3.48,6l-22.46,13a7.65,7.65,0,0,1-7,0l-2.84-1.64a7.68,7.68,0,0,1-3.49-6V125.48A7.69,7.69,0,0,1,42.88,119.44Z" style="fill:#BA68C8"></path><path d="M42.88,119.44l22.46-13a7.71,7.71,0,0,1,7,0l2.84,1.64a7.72,7.72,0,0,1,3.48,6v25.93a7.72,7.72,0,0,1-3.48,6l-22.46,13a7.65,7.65,0,0,1-7,0l-2.84-1.64a7.68,7.68,0,0,1-3.49-6V125.48A7.69,7.69,0,0,1,42.88,119.44Z" style="fill:#fff;opacity:0.7000000000000001"></path><path d="M52.69,125.1l22.46-13c1.92-1.11,3.48-.21,3.48,2v25.93a7.72,7.72,0,0,1-3.48,6l-22.46,13c-1.93,1.12-3.49.21-3.49-2V131.14A7.7,7.7,0,0,1,52.69,125.1Z" style="fill:#BA68C8"></path><path d="M52.69,125.1l22.46-13c1.92-1.11,3.48-.21,3.48,2v25.93a7.72,7.72,0,0,1-3.48,6l-22.46,13c-1.93,1.12-3.49.21-3.49-2V131.14A7.7,7.7,0,0,1,52.69,125.1Z" style="fill:#fff;opacity:0.55"></path><path d="M39.39,151.41a7.68,7.68,0,0,0,3.49,6l2.84,1.64a7.72,7.72,0,0,0,6.37.28c-1.64.62-2.89-.3-2.89-2.29V131.14a7.11,7.11,0,0,1,1-3.43L40.41,122a7.15,7.15,0,0,0-1,3.44Z" style="fill:#BA68C8"></path><path d="M39.39,151.41a7.68,7.68,0,0,0,3.49,6l2.84,1.64a7.72,7.72,0,0,0,6.37.28c-1.64.62-2.89-.3-2.89-2.29V131.14a7.11,7.11,0,0,1,1-3.43L40.41,122a7.15,7.15,0,0,0-1,3.44Z" style="fill:#fff;opacity:0.4"></path><path d="M69.38,137.11a25.74,25.74,0,0,0,2.24-10.66,19.81,19.81,0,0,0,1.85-3.61,13.64,13.64,0,0,1-2.12,2A9.91,9.91,0,0,0,73,121.18a14.32,14.32,0,0,1-2.34,2.54,2.26,2.26,0,0,0-2.7,0c-2.38,1.37-4.13,5.35-3.59,8.11-3.07,1.57-5.79,1.18-7.61-.75-1,2.78-.5,5.4,1.14,5.92a2.69,2.69,0,0,1-1.67.35c0,2.3,1.18,3.72,3,3.18a4.55,4.55,0,0,1-1.67,1A2.18,2.18,0,0,0,60.94,143a12.7,12.7,0,0,1-5.47,5.19,7.35,7.35,0,0,0,5.66-1c3.65-2.11,6.46-5.92,8.25-10" style="fill:#fff"></path></g><g id="freepik--social-icon--inject-1135"><path d="M42.88,178.23l22.46-13a7.71,7.71,0,0,1,7,0l2.84,1.64a7.72,7.72,0,0,1,3.48,6v25.93a7.73,7.73,0,0,1-3.48,6l-22.46,13a7.71,7.71,0,0,1-7,0l-2.84-1.64a7.68,7.68,0,0,1-3.49-6V184.26A7.68,7.68,0,0,1,42.88,178.23Z" style="fill:#BA68C8"></path><path d="M42.88,178.23l22.46-13a7.71,7.71,0,0,1,7,0l2.84,1.64a7.72,7.72,0,0,1,3.48,6v25.93a7.73,7.73,0,0,1-3.48,6l-22.46,13a7.71,7.71,0,0,1-7,0l-2.84-1.64a7.68,7.68,0,0,1-3.49-6V184.26A7.68,7.68,0,0,1,42.88,178.23Z" style="fill:#fff;opacity:0.7000000000000001"></path><path d="M78.63,172.94c0-2.22-1.56-3.13-3.48-2l-22.46,13a7.7,7.7,0,0,0-3.49,6v25.93c0,2.22,1.56,3.12,3.49,2l22.46-13a7.73,7.73,0,0,0,3.48-6Z" style="fill:#BA68C8"></path><path d="M78.63,172.94c0-2.22-1.56-3.13-3.48-2l-22.46,13a7.7,7.7,0,0,0-3.49,6v25.93c0,2.22,1.56,3.12,3.49,2l22.46-13a7.73,7.73,0,0,0,3.48-6Z" style="fill:#fff;opacity:0.55"></path><path d="M39.39,210.2a7.68,7.68,0,0,0,3.49,6l2.84,1.64a7.76,7.76,0,0,0,6.37.28c-1.64.62-2.89-.3-2.89-2.29V189.93a7.18,7.18,0,0,1,1-3.44l-9.8-5.66a7,7,0,0,0-1,3.43Z" style="fill:#BA68C8"></path><path d="M39.39,210.2a7.68,7.68,0,0,0,3.49,6l2.84,1.64a7.76,7.76,0,0,0,6.37.28c-1.64.62-2.89-.3-2.89-2.29V189.93a7.18,7.18,0,0,1,1-3.44l-9.8-5.66a7,7,0,0,0-1,3.43Z" style="fill:#fff;opacity:0.4"></path><path d="M60.55,208.72l3.75-2.16V194.05l2.61-1.51.28-4.35-2.89,1.67v-2.39c0-1,.14-1.46.86-1.87l2-1.17v-4.35l-2.6,1.5a7.62,7.62,0,0,0-4,7.1V192l-1.95,1.13v4.24l1.95-1.13Z" style="fill:#fff"></path></g><g id="freepik--social-icon--inject-1135"><path d="M42.88,237l22.46-13a7.71,7.71,0,0,1,7,0l2.84,1.64a7.7,7.7,0,0,1,3.48,6v25.93a7.7,7.7,0,0,1-3.48,6l-22.46,13a7.71,7.71,0,0,1-7,0L42.88,275a7.69,7.69,0,0,1-3.49-6V243.05A7.68,7.68,0,0,1,42.88,237Z" style="fill:#BA68C8"></path><path d="M42.88,237l22.46-13a7.71,7.71,0,0,1,7,0l2.84,1.64a7.7,7.7,0,0,1,3.48,6v25.93a7.7,7.7,0,0,1-3.48,6l-22.46,13a7.71,7.71,0,0,1-7,0L42.88,275a7.69,7.69,0,0,1-3.49-6V243.05A7.68,7.68,0,0,1,42.88,237Z" style="fill:#fff;opacity:0.7000000000000001"></path><path d="M78.63,231.73c0-2.23-1.56-3.13-3.48-2l-22.46,13a7.69,7.69,0,0,0-3.49,6v25.93c0,2.22,1.56,3.12,3.49,2l22.46-13a7.7,7.7,0,0,0,3.48-6Z" style="fill:#BA68C8"></path><path d="M78.63,231.73c0-2.23-1.56-3.13-3.48-2l-22.46,13a7.69,7.69,0,0,0-3.49,6v25.93c0,2.22,1.56,3.12,3.49,2l22.46-13a7.7,7.7,0,0,0,3.48-6Z" style="fill:#fff;opacity:0.55"></path><path d="M39.39,269a7.69,7.69,0,0,0,3.49,6l2.84,1.64a7.8,7.8,0,0,0,6.37.28c-1.64.62-2.89-.31-2.89-2.29V248.72a7.11,7.11,0,0,1,1-3.44l-9.81-5.66a7.11,7.11,0,0,0-1,3.43Z" style="fill:#BA68C8"></path><path d="M39.39,269a7.69,7.69,0,0,0,3.49,6l2.84,1.64a7.8,7.8,0,0,0,6.37.28c-1.64.62-2.89-.31-2.89-2.29V248.72a7.11,7.11,0,0,1,1-3.44l-9.81-5.66a7.11,7.11,0,0,0-1,3.43Z" style="fill:#fff;opacity:0.4"></path><path d="M64.47,243.64c2.3-1.32,2.57-1.47,3.48-1.94a3.74,3.74,0,0,1,1.6-.52,1.38,1.38,0,0,1,1,.28,1.91,1.91,0,0,1,.64.95,6.27,6.27,0,0,1,.3,2c0,1.19,0,1.54,0,4.61s0,3.43,0,4.67a10.45,10.45,0,0,1-.3,2.3,7.53,7.53,0,0,1-.64,1.69,6.84,6.84,0,0,1-1,1.43,7.9,7.9,0,0,1-1.6,1.32c-.91.58-1.18.74-3.48,2.07S61.9,263.93,61,264.4a3.81,3.81,0,0,1-1.6.53,1.39,1.39,0,0,1-1-.29,1.87,1.87,0,0,1-.64-.95,6.21,6.21,0,0,1-.3-2c0-1.18-.05-1.54-.05-4.6s0-3.44.05-4.67a10.36,10.36,0,0,1,.3-2.3,7.18,7.18,0,0,1,.64-1.69,6.58,6.58,0,0,1,1-1.43,7.58,7.58,0,0,1,1.6-1.32c.91-.58,1.18-.75,3.48-2.08m0-2.06c-2.34,1.35-2.63,1.53-3.55,2.11a10.68,10.68,0,0,0-2.09,1.74,10.18,10.18,0,0,0-1.52,2.21,11.14,11.14,0,0,0-1,2.6,13.41,13.41,0,0,0-.4,3c-.05,1.25-.06,1.65-.06,4.76s0,3.5.06,4.7a8.16,8.16,0,0,0,.4,2.56,2.89,2.89,0,0,0,1,1.46,2.18,2.18,0,0,0,1.52.44,5.12,5.12,0,0,0,2.09-.67c.92-.48,1.21-.63,3.55-2S67.1,263,68,262.41a10,10,0,0,0,2.09-1.74,10.35,10.35,0,0,0,1.52-2.2,11.91,11.91,0,0,0,1-2.61,14,14,0,0,0,.39-3c0-1.24.06-1.64.06-4.76s0-3.5-.06-4.7a8.39,8.39,0,0,0-.39-2.55,3,3,0,0,0-1-1.46,2.19,2.19,0,0,0-1.52-.45,5.17,5.17,0,0,0-2.09.68c-.92.47-1.21.63-3.55,2" style="fill:#fff"></path><path d="M64.47,247.16c-2.44,1.41-4.42,5.19-4.42,8.44s2,4.76,4.42,3.35,4.42-5.19,4.42-8.45-2-4.75-4.42-3.34m0,9.72c-1.58.91-2.87-.06-2.87-2.17a6.88,6.88,0,0,1,2.87-5.48c1.58-.92,2.87.05,2.87,2.17a6.89,6.89,0,0,1-2.87,5.48" style="fill:#fff"></path><path d="M68.16,245c0,.76.46,1.11,1,.78a2.48,2.48,0,0,0,1-2c0-.76-.47-1.11-1-.78a2.47,2.47,0,0,0-1,2" style="fill:#fff"></path></g></g><g id="freepik--Device--inject-1135"><g id="freepik--Mobile--inject-1135"><path d="M313.77,255.93,80.23,390.76c-6,3.47-5.94,7.41-5.94,10.95s1.59,8.43,5.94,10.94l111.36,64.29a17.41,17.41,0,0,0,15.75,0L440.88,342.11c4.35-2.51,5.34-6.72,5.34-10.26s-1-9.12-5.34-11.63L329.52,255.93A14.81,14.81,0,0,0,313.77,255.93Z" style="fill:#263238"></path><path d="M319.52,260.78,434,326.9,199.46,462.28v16.55a16.09,16.09,0,0,0,7.88-1.89L440.88,342.11c4.35-2.51,5.34-6.72,5.34-10.26s-1-9.12-5.34-11.63L329.52,255.93a15,15,0,0,0-10-2.1v6.95Z" style="fill:#37474f"></path><path d="M82.25,398.93,193.93,463.4a12.25,12.25,0,0,0,11,0L436.63,329.67c4.66-2.7,4.66-7.12,0-9.81L327.91,257.09a13.91,13.91,0,0,0-12.52,0L82.25,391.69C78.8,393.68,78.81,396.94,82.25,398.93Z" style="fill:#455a64"></path><path d="M383.56,363.72a6.64,6.64,0,0,0-3.11,5.15,1.93,1.93,0,0,0,.86,1.81c.37.2,1.78,1.05,2.17,1.26a2.26,2.26,0,0,0,2.24-.25L424.9,349a6.67,6.67,0,0,0,3.1-5.15,2,2,0,0,0-.78-1.77c-.39-.24-1.86-1.09-2.24-1.31a2.31,2.31,0,0,0-2.25.26Z" style="fill:#455a64"></path><path d="M385.72,365l39.18-22.65c1.71-1,3.1-.29,3.1,1.57a6.67,6.67,0,0,1-3.1,5.15l-39.18,22.65c-1.71,1-3.1.29-3.1-1.57A6.65,6.65,0,0,1,385.72,365Z" style="fill:#37474f"></path><path d="M310.27,265,93,390.46c-3.29,1.9-3.3,5,0,6.9L194,455.7a13.16,13.16,0,0,0,11.94,0L424.83,329.31c2.67-1.54,3.19-3.87,1.51-5.71-.14-.14-.26-.28-.41-.42a7.1,7.1,0,0,0-1.1-.76L396.41,306l-1.85-1.07a4.11,4.11,0,0,0-3.71,0,4.21,4.21,0,0,1-3.83-.08L353.9,285.74c-1.09-.63-1.15-1.62-.14-2.21s1-1.43.2-2l-.18-.11L326,265.34l-.59-.34A16.69,16.69,0,0,0,310.27,265Z"></path><path d="M390.85,309.19a4.08,4.08,0,0,1,3.71,0l1.85,1.07,28.42,16.41a7.1,7.1,0,0,1,1.1.76c.15.14.27.28.41.42l.11.15a6.1,6.1,0,0,1-1.62,1.31L205.92,455.7a13.16,13.16,0,0,1-11.94,0l-101-58.34A5.87,5.87,0,0,1,91.33,396,6,6,0,0,1,93,394.71L310.27,269.24a16.76,16.76,0,0,1,15.11,0l.59.35,27.08,15.62s0,3.23,0,3.61a1.44,1.44,0,0,0,.86,1.17L387,309.11A4.21,4.21,0,0,0,390.85,309.19Z" style="fill:#BA68C8"></path><path d="M390.85,309.19a4.08,4.08,0,0,1,3.71,0l1.85,1.07,28.42,16.41a7.1,7.1,0,0,1,1.1.76c.15.14.27.28.41.42l.11.15a6.1,6.1,0,0,1-1.62,1.31L205.92,455.7a13.16,13.16,0,0,1-11.94,0l-101-58.34A5.87,5.87,0,0,1,91.33,396,6,6,0,0,1,93,394.71L310.27,269.24a16.76,16.76,0,0,1,15.11,0l.59.35,27.08,15.62s0,3.23,0,3.61a1.44,1.44,0,0,0,.86,1.17L387,309.11A4.21,4.21,0,0,0,390.85,309.19Z" style="fill:#fff;opacity:0.8"></path><path d="M388.22,298.36,373,289.6a3.5,3.5,0,0,0-3.18-.06c-.85.49-.8,1.31.1,1.83l15.19,8.77a3.53,3.53,0,0,0,3.18.06C389.17,299.71,389.13,298.89,388.22,298.36Z" style="fill:#263238"></path><path d="M365.87,284.74a4.07,4.07,0,0,0-3.69,0,1.12,1.12,0,0,0,0,2.13,4.07,4.07,0,0,0,3.69,0A1.12,1.12,0,0,0,365.87,284.74Z" style="fill:#263238"></path><g style="opacity:0.35000000000000003"><polygon points="218.54 317.95 247.04 301.5 272.25 417.4 243.75 433.85 218.54 317.95" style="fill:#fff"></polygon><path d="M298.18,402.43,273,286.53,310.27,265a16.69,16.69,0,0,1,15.11,0l.59.34L342.72,275l19.66,90.36Z" style="fill:#fff"></path></g></g></g><g id="freepik--Character--inject-1135"><g id="freepik--character--inject-1135"><g id="freepik--Bottom--inject-1135"><g id="freepik--bottom--inject-1135"><path d="M163.42,359.84c.1-15.49-.1-37.22-.34-47.38-.26-11.13.06-14.19.32-19.86.88-19.09,5.18-21.34,5.37-25,0,0-.25-31.71-.63-74-.17-19.63,4-25.83,7.73-36.34l61.49-1.86c5.67,27.14,9,74.17,9.46,100.66.24,13.5,0,81,.77,88.62.64,5.87,2.7,11.55,5.07,14,5,5.07,12.84,9.48,20.39,13.42-.82,2.34-17.65,3-21.3,1.35-5.83-2.68-15.25-9.64-17.32-10.94A19,19,0,0,1,229.64,347v-.63c-.18-3.28-11.5-40.91-14.53-62.08-1.37-9.56,0-26,0-26l-8.91-40.64s-3.65,31.46-7.13,48c-2.83,13.49-15.64,83.95-17.72,94.12-.1,6.48-4.21,26.54-5.15,31.68s-12.07,5.54-13-3.23C162.57,382.43,163.4,362.64,163.42,359.84Z" style="fill:#b16668"></path><path d="M279.25,377.73c.33,0,.71,3.67-1.1,5.16-2.09,1.72-8.15,4.46-16,3.17s-12.06-3.91-15.14-6.7-7.39-6.73-10.94-7.64c-3.29-.85-6.85-2.49-7.88-3.57s-.74-5.71-.74-5.71Z" style="fill:#263238"></path><path d="M229.64,346.4a1.25,1.25,0,0,0-1.22,1c-.28,1.27.4,5.11-.18,7.19a26.43,26.43,0,0,0-.7,9.41c.37,2.39,5.72,4.21,9.14,5.66s7.48,4.43,11,7.55,11.33,6.6,16.47,6.84c7.85.37,13-1.63,14.66-4.46,2.05-3.49.59-5.59-8.31-10.14-1.68-.86-7.58-4.66-9.58-6a46.38,46.38,0,0,1-6-4.84,36,36,0,0,1-2.67-2.86,12.59,12.59,0,0,1-2.2-3.05c-.09-.24-.16-.53-.24-.78a13.7,13.7,0,0,1-.52-2.17c-.12-.77-.18-1.89-.88-2.37a6,6,0,0,0-3.22-.49,24,24,0,0,0-3.49.39c-1.34.26-2.88.33-3.71,1.58a6.83,6.83,0,0,0-.84,3.3c0,.54,0,1.08-.07,1.61,0,.23.08.65-.23.54s-.61-.91-.72-1.19c-.23-.61-.37-1.25-.63-1.85s-.45-1.58-1.06-2c-2.45-1.62-3.93-1.31-4.63-2.13Z" style="fill:#37474f"></path><path d="M271.9,370.24c-11.39.43-15.19,7.46-15.8,11.87a26.28,26.28,0,0,0,8,2c7.85.37,13.32-1.62,15-4.44C281,376.35,279.87,373.61,271.9,370.24Z" style="fill:#fafafa"></path><path d="M254.86,369.81a.51.51,0,0,1-.35-.13.58.58,0,0,1-.06-.8,13.26,13.26,0,0,1,10.41-3.8.56.56,0,0,1,.47.64.55.55,0,0,1-.62.48c-3.85-.54-8.12,1.9-9.42,3.42A.52.52,0,0,1,254.86,369.81Z" style="fill:#f0f0f0"></path><path d="M250.05,366.76a.57.57,0,0,1-.4-.94,13.24,13.24,0,0,1,10.4-3.8.56.56,0,0,1,.47.64.54.54,0,0,1-.62.48c-3.85-.54-8.11,1.9-9.42,3.42A.53.53,0,0,1,250.05,366.76Z" style="fill:#f0f0f0"></path><path d="M245.61,363.3a.59.59,0,0,1-.35-.14.58.58,0,0,1,0-.8,13.25,13.25,0,0,1,10.4-3.8.57.57,0,0,1,.48.64.55.55,0,0,1-.63.48c-3.84-.54-8.11,1.9-9.41,3.42A.6.6,0,0,1,245.61,363.3Z" style="fill:#f0f0f0"></path><path d="M241.27,359.84a.54.54,0,0,1-.34-.14.56.56,0,0,1-.07-.79c2.26-2.73,7.24-4.42,11.35-3.82a.56.56,0,0,1-.15,1.11c-3.7-.52-8.34,1-10.35,3.44A.57.57,0,0,1,241.27,359.84Z" style="fill:#f0f0f0"></path><path d="M180.63,395.37c-.19,5.1-.93,8.5-2.73,11.53s-5.81,4.38-9.41,3.6a12.84,12.84,0,0,1-9.12-7.33c-1.78-4.13-1.6-7.74-.9-12.49Z" style="fill:#263238"></path><path d="M163.43,358.89c-1.48.15-.52,7-1.2,13.84-.74,7.36-2.94,10.45-3.61,16.49-.76,6.89.49,9.94,3.1,14s11.55,8,15.77,1.9c3.44-4.94,3.46-10.33,3-17.18a146.87,146.87,0,0,1,0-17.41c.16-5.15,2.13-10.2.83-10.74-.08.76-1.07,1.55-1.15,2.29a12.19,12.19,0,0,1-.41,2.76c-.14.38-.46.79-.61.17a3.92,3.92,0,0,1,0-1.28c.17-1.9-.83-2-1.37-2.16a68.75,68.75,0,0,0-6.87-.77c-1.13-.05-5.54-.1-6,.53-.33.43-.3.7-.38,1.57a7.69,7.69,0,0,1-.23,2.08c-.41.25-.51-.3-.75-1.62-.07-.44-.11-2-.11-2.45S163.41,359.33,163.43,358.89Z" style="fill:#37474f"></path><path d="M158.31,393.21c-.15,4.27.7,7.63,3,10.38,3.13,3.73,12.27,8,16.49,1.89,2.09-3,2.59-6.53,2.8-10.11C177.9,390.85,162.34,389.2,158.31,393.21Z" style="fill:#fafafa"></path><path d="M177.22,388a.67.67,0,0,1-.19-.05c-.06,0-7-2.58-13.57-.93a.56.56,0,0,1-.67-.38.53.53,0,0,1,.39-.65c7-1.73,14,.89,14.3,1a.52.52,0,0,1,.28.69A.57.57,0,0,1,177.22,388Z" style="fill:#f0f0f0"></path><path d="M163.66,381.86a.52.52,0,0,1-.47-.34.53.53,0,0,1,.32-.68c6.57-2.32,14,.74,14.28.88a.5.5,0,0,1,.25.7.57.57,0,0,1-.73.24c-.07,0-7.31-3-13.42-.83A.45.45,0,0,1,163.66,381.86Z" style="fill:#f0f0f0"></path><path d="M163.78,377a.55.55,0,0,1-.47-.34.52.52,0,0,1,.31-.68c7.22-2.69,14.29.68,14.55.83a.52.52,0,0,1,.2.72.56.56,0,0,1-.75.19c-.06,0-6.88-3.26-13.6-.76A.67.67,0,0,1,163.78,377Z" style="fill:#f0f0f0"></path><path d="M164,372.26a.53.53,0,0,1-.46-.33.51.51,0,0,1,.3-.68c6.77-2.63,14.36.82,14.65,1a.51.51,0,0,1,.22.71.55.55,0,0,1-.74.22c-.07,0-7.44-3.37-13.72-.93A.44.44,0,0,1,164,372.26Z" style="fill:#ebebeb"></path></g><path d="M172,157c-5.46,9.52-11.73,17.83-10.56,45.58,1.62,38.22,2.37,64,2.37,64-2.14,6.13-2.86,17.12-2,37.5.66,16.28,1.44,38.17,1.44,38.17s12.31,5.62,21.9,1.74c2.69-13.35,9.57-56.11,13.76-73.8,3.81-16,7.29-43.19,7.29-43.19l8.22,31.13s-2.76,16.95.74,32.06c2.48,10.66,10.27,41.44,10.27,41.44s14,2.85,22.3-3.25c0,0,1.09-53.42.85-66.57-.37-19.74-.36-28.14-4.14-68.43-1.61-17.2-4.69-29.5-5.64-37.51Z" style="fill:#37474f"></path><path d="M162.71,338.53c3.9,2.46,18.22,4.48,23.54,2.5l-1.48,6.19s-2.4,1.73-11.32,1c-7.31-.61-10.59-3.46-10.59-3.46Z" style="fill:#455a64"></path><path d="M223.82,325.68c4.35,1.53,19.18-.6,23.93-3.71l-.09,6.42a27,27,0,0,1-12.14,4.43c-7.32.82-10.16-1.18-10.16-1.18Z" style="fill:#455a64"></path><path d="M206.13,227l5.18-32.31s17.14-2,23.38-8c0,0-7.87,11.07-19.5,12.86l-4.92,23.79,4,34.44Z" style="fill:#263238"></path></g><g id="freepik--Top--inject-1135"><path d="M222.92,95.23c8.78.63,11.94,1.88,16.64,8.61,4.82,6.89,11.93,18.39,19.19,29L280,124.28l8.92,13.5s-25.38,15.7-31,17.08c-7.37,1.82-9.45-1.74-13.36-6.37-4.18-5-17.84-23.37-17.84-23.37Z" style="fill:#b16668"></path><path d="M258.75,132.8c-8.34,2.48-9.75,8-9.75,8,.2-3.71,2.85-7.29,8.62-9.63Z" style="fill:#9a4a4d"></path><path d="M310.92,97.48h0l-1.56-1.38v0a1.8,1.8,0,0,0-1.62-.21l-17.18,4.39a6.34,6.34,0,0,0-3.9,3.53l-12.85,35.32A1.63,1.63,0,0,0,274,141h0l1.61,1.43v0a1.78,1.78,0,0,0,1.63.22l17.18-4.39a6.29,6.29,0,0,0,3.9-3.53c2.52-6.94,10.33-28.38,12.86-35.32A1.58,1.58,0,0,0,310.92,97.48Z" style="fill:#455a64"></path><path d="M290.28,102.64a6.29,6.29,0,0,0-2,2.58l-12.86,35.31a1.7,1.7,0,0,0,.14,1.78L274,141l0,0a1.61,1.61,0,0,1-.21-1.81l12.87-35.33a6,6,0,0,1,1.86-2.44Z" style="fill:#263238"></path><path d="M275.4,140.54l12.86-35.32a6.24,6.24,0,0,1,3.9-3.53l17.17-4.39c1.59-.41,2.43.52,1.87,2.06-2.53,6.94-10.34,28.38-12.86,35.32a6.32,6.32,0,0,1-3.9,3.53l-17.18,4.39C275.67,143,274.84,142.08,275.4,140.54Z" style="fill:#37474f"></path><path d="M288.16,112.67l2.41-6.61a1.14,1.14,0,0,1,.73-.66l3.21-.83c.3-.07.46.1.35.39l-2.4,6.61a1.22,1.22,0,0,1-.73.66l-3.22.82C288.21,113.13,288.06,113,288.16,112.67Z" style="fill:#455a64"></path><path d="M290.7,107.65a3,3,0,0,1,1.86-1.63c.77-.2,1.19.21.93.92a3,3,0,0,1-1.86,1.63C290.86,108.76,290.45,108.35,290.7,107.65Z" style="fill:#263238"></path><path d="M289.53,111a3,3,0,0,1,1.86-1.63c.77-.19,1.18.22.93.92a3,3,0,0,1-1.86,1.63C289.69,112.1,289.27,111.69,289.53,111Z" style="fill:#263238"></path><path d="M308,118.71c1.88-2.21,1.76-2.53.95-3.81a7.43,7.43,0,0,0-5.76-3.59c-2.07-.12-4.16-.33-5.27.13s-.39,2.77,2.25,3.61c4.16,1.31,4,2.46,4,2.46a52.9,52.9,0,0,0-5.39-1.43c-1.56-.22-4.49.28-6.3.42s-2.36,2.4.6,3.46l-3.32.24c-2.33.17-3.21,1.33-1.53,2.9a3.34,3.34,0,0,0,2,1s-2.44-.21-2.56.6c-.34,2.32,1.12,3,5.93,4.91,4.6,1.76,5.35,4.38,4.27,6.05,0,0,2-.94,3.78-2,1.31-.75,2.44-1.62,2-3.6,0,0,2.69.28,3-1.37a8.57,8.57,0,0,0-.34-3.62,2.93,2.93,0,0,0,1.71-2.63,4.75,4.75,0,0,0-.73-3Z" style="fill:#b16668"></path><path d="M293.06,120a14.26,14.26,0,0,1,3-.07,9.65,9.65,0,0,1,2.81,1.15,35.66,35.66,0,0,1,5,3.22,33.87,33.87,0,0,1-5.37-2.45,15.76,15.76,0,0,0-2.54-1.26C295,120.33,294,120.22,293.06,120Z" style="fill:#9a4a4d"></path><path d="M290.22,124.06a6.56,6.56,0,0,1,3.23.17,18.23,18.23,0,0,1,3,1.23,30.3,30.3,0,0,1,5.35,3.48c-2-.78-3.88-1.75-5.75-2.7A16.69,16.69,0,0,0,290.22,124.06Z" style="fill:#9a4a4d"></path><path d="M217,94.74s-22.45,1.39-32.61,2.67l-6.9,1.47c-2.87,1-11.21,4.13-8.27,28,1,8.39,3.59,20.68,3.59,20.68l-3.2,12.27c14.33,11.75,63.9,8.2,70,.61,0,0-.93-12.39-1.92-20.9a16.15,16.15,0,0,0,6.13-12c.41-7.22-2-12.5-8.56-20.63-7.47-9.29-12.28-11.71-12.28-11.71Z" style="fill:#BA68C8"></path><path d="M217,94.74s-22.45,1.39-32.61,2.67l-6.9,1.47c-2.87,1-11.21,4.13-8.27,28,1,8.39,3.59,20.68,3.59,20.68l-3.2,12.27c14.33,11.75,63.9,8.2,70,.61,0,0-.93-12.39-1.92-20.9a16.15,16.15,0,0,0,6.13-12c.41-7.22-2-12.5-8.56-20.63-7.47-9.29-12.28-11.71-12.28-11.71Z" style="fill:#fff;opacity:0.6000000000000001"></path><path d="M235.2,106.94c-7.47-9.29-12.28-11.71-12.28-11.71l-6-.49s-22.45,1.39-32.61,2.67l-6.9,1.47c-2.6.87-9.67,3.55-8.82,21.78,24.16,3.2,57.13-1,71.84-6.27A60.56,60.56,0,0,0,235.2,106.94Z" style="fill:#BA68C8;opacity:0.5"></path><path d="M236.37,68.67c.68-2.51,3.49-2.81,4-6.17s-1.32-5.57-4.11-7-3.4-4.11-3-9.74-3.67-8.86-8.29-9.42c-2.28-.28-4.92,0-6.55-1.59a11.64,11.64,0,0,1-1.61-2.56c-2.3-4-6.43-5.67-11.89-5.51a18.64,18.64,0,0,0-7.12,1.57C195,29.4,193.69,30.41,191,33c-3-.42-8.63.38-11.61,3.16-2.15,1.9-4.23,4-4.79,8.21-.43,3.33-.07,5.2-1.45,7-2.82,3.74-6.45,3.82-8,7-2.24,4.46,3.65,8.08.83,13.49-2.36,4.55-1.44,8.76,3.72,10.58,2.59.91,4.5-.35,7.7,1.8s3,3.72,6.45,4.48c6.27,1.41,8.05-1.77,11.13-2.21,4.22-.61,5.85,2.5,10-.28,1.4-1,2.21-2.61,3.63-3.56,4.51-2.85,6-1.4,11.63.45,1.46.48,6.28,1.69,9.46-2a12.56,12.56,0,0,0,2.62-8.52c1,3,8,2.79,8.6-2.08A2.45,2.45,0,0,1,236.37,68.67Z" style="fill:#263238"></path><path d="M190.08,89.91c-.14-2.8-.79-11.26-.79-11.26-1,2.64-5.7,2.87-8.11-.3-3-4-3.16-8.86-1.23-11.88,2.12-3.33,7.37-3.54,9.84,1.47,3.48.55,4.66-4.79,1.68-9.6-.36-11.65,15.58-8.14,18.5-18.68a18.17,18.17,0,0,1,13.12,9.24c1.31,2.56,1.54,4.15,1.39,9.39-.06,2.05,1.4,4.38,1.88,7.07C228.55,77.7,225,82.74,221,85.25c-2.13,1.34-4.92,2.24-10.08,2.68,0,0,.15,2.32.3,3.86s.36,2,2.18,2.42a31.43,31.43,0,0,0,3.51.53s7.2,8.33-4,10.69c-16.74,3.51-28.59-8-28.59-8l3.43-.82C190.31,96,190.31,94.57,190.08,89.91Z" style="fill:#b16668"></path><path d="M183.86,77a1.72,1.72,0,1,0,1.54-1.88A1.72,1.72,0,0,0,183.86,77Z" style="fill:#ebebeb"></path><path d="M205.57,74.51l6.25,1.5A3.15,3.15,0,0,1,208,78.49,3.35,3.35,0,0,1,205.57,74.51Z" style="fill:#9a4a4d"></path><path d="M206.06,75.89a3.54,3.54,0,0,1,3.73,2.49,3,3,0,0,1-1.78.11,3.3,3.3,0,0,1-2.42-2.5A3.94,3.94,0,0,1,206.06,75.89Z" style="fill:#f28f8f"></path><path d="M221.55,52.85l-4.94-.18a2.37,2.37,0,0,1,2.47-2.4A2.59,2.59,0,0,1,221.55,52.85Z" style="fill:#37474f"></path><path d="M198.65,54.73l4.83-1.33a2.4,2.4,0,0,0-3-1.79A2.63,2.63,0,0,0,198.65,54.73Z" style="fill:#37474f"></path><path d="M216.81,60.74a2.13,2.13,0,0,0,2.06,2.1,2,2,0,0,0,2.07-2,2.12,2.12,0,0,0-2.06-2.1A2,2,0,0,0,216.81,60.74Z" style="fill:#263238"></path><path d="M201.94,62.2A2.13,2.13,0,0,0,204,64.3a2,2,0,0,0,2.07-2,2.11,2.11,0,0,0-2-2.1A2,2,0,0,0,201.94,62.2Z" style="fill:#263238"></path><path d="M211,87.93c-7.87-.21-16.8-2.76-19.71-7,0,0,1.27,4.31,4.51,6.06a31.26,31.26,0,0,0,15.38,3.44Z" style="fill:#9a4a4d"></path><path d="M195.45,57.81,184,64.07a5.52,5.52,0,0,1,3.69,1.21L196,60.57Z" style="fill:#ebebeb"></path><path d="M227.41,54.84c-3.09-.16-7.25,0-9.74,1-2.78,1.11-3.74,2.18-5.3,2.32s-2.78-.76-5.84-1.39c-2.44-.5-6.71.05-9.75.63-1.05.1-2,.48-1.93,1.88s1.06,1.46,1.34,2.51c.72,3.65,2,8.17,6.78,8,9.95-.1,6.16-9.53,9.83-9.3,1.34.2,1.3,2.75,2.22,4.5a7.31,7.31,0,0,0,1.36,1.89c3.45,3.19,9.46.86,10.19-2.6.71-1.74.4-4.43,1.16-5.95C228.46,57.64,229,55.11,227.41,54.84Zm-18.33,8.84a5.94,5.94,0,0,1-1.22,2.83,5.4,5.4,0,0,1-4,1.89c-2.14.14-4.34-.72-5-2.75-.09-.19-.16-.37-.23-.56-.53-1.51-1.3-4.74-.54-5.74,1.39-1.68,8.51-2.05,10.75.21C209.44,60.35,209.35,62.14,209.08,63.68Zm16.87-2c-.17,1.08-.55,3.43-2.53,4.6-2.62,1.55-6.48.42-7.21-2.18-2-5.4.09-6.83,5.54-7.75C226.27,56.05,226.6,57.2,226,61.69Z" style="fill:#fafafa"></path><path d="M226,61.69c-.17,1.08-.55,3.43-2.53,4.6-2.62,1.55-6.48.42-7.21-2.18-2-5.4.09-6.83,5.54-7.75C226.27,56.05,226.6,57.2,226,61.69Z" style="fill:#37474f"></path><path d="M209.08,63.68a5.94,5.94,0,0,1-1.22,2.83,5.4,5.4,0,0,1-4,1.89c-2.14.14-4.34-.72-5-2.75-.09-.19-.16-.37-.23-.56-.53-1.51-1.3-4.74-.54-5.74,1.39-1.68,8.51-2.05,10.75.21C209.44,60.35,209.35,62.14,209.08,63.68Z" style="fill:#37474f"></path><path d="M203.69,58c-2.43-.07-4.87.45-5.62,1.36s0,4.23.54,5.74c0,.09.07.18.11.27a8.65,8.65,0,0,0,2.13-.54c.44-.18,1-.37,1.35,0a1.11,1.11,0,0,1,.05,1.17,3.71,3.71,0,0,0-.54,2.22,6.27,6.27,0,0,0,2.16.23,5.4,5.4,0,0,0,4-1.89,5.34,5.34,0,0,0,.56-.84,5.74,5.74,0,0,1-2.71.76,1.23,1.23,0,0,1-.94-.22,1.18,1.18,0,0,1-.2-1.1,7.21,7.21,0,0,1,1.27-2.77,2.44,2.44,0,0,0,.43-.81.74.74,0,0,0-.28-.82,1,1,0,0,0-.8,0,7.34,7.34,0,0,0-1.85.89c-.37.24-.85.52-1.22.28a.76.76,0,0,1-.3-.62,2.81,2.81,0,0,1,.67-1.69C202.88,59,203.29,58.52,203.69,58Z" style="fill:#455a64"></path><path d="M225,63.93a2,2,0,0,1-1.59.07.66.66,0,0,1-.3-.24.74.74,0,0,1,0-.33,6.25,6.25,0,0,1,.74-2.23,1.47,1.47,0,0,0,.17-1.06,1.2,1.2,0,0,0-1.28-.66c-.52.05-1,.27-1.52.32a1.14,1.14,0,0,1-.79-.15.92.92,0,0,1-.33-.83,2.3,2.3,0,0,1,.3-.88,8.39,8.39,0,0,1,1-1.52c-4.66.83-6.7,2.11-5.68,6.17a2.73,2.73,0,0,0,.48.25,3.64,3.64,0,0,0,2.33,0,6.76,6.76,0,0,1,2-.56,1.08,1.08,0,0,1,.72.22,1.17,1.17,0,0,1,.28,1,5.67,5.67,0,0,1-.52,1.48,3.16,3.16,0,0,0-.34,1.52,1.33,1.33,0,0,0,.14.48,5.08,5.08,0,0,0,2.56-.7,4.81,4.81,0,0,0,2.05-2.64A2.6,2.6,0,0,1,225,63.93Z" style="fill:#455a64"></path><path d="M219.49,69.43l-6.65,3-1.56-11a1.48,1.48,0,0,1,1.08-.93Z" style="fill:#9a4a4d"></path><path d="M177.44,98.88c-7.85,1.33-15.1,3.26-19.8,11.22-5.78,9.82-13.46,23.12-19.19,35.56-3.44,7.46-4.76,11.84-.9,17,3.4,4.56,19.67,18.43,24.15,23.15,3,3.14,7,9.19,10.13,11.66,0,0,6.55-1.1,10.56-12.57,0,0,.35-1.73,4.44,0,2.84,1.17,6.5,1.61,8.35,0s-2.18-2.72-4.17-4.12a24.67,24.67,0,0,0-9.77-4.72c-5.1-1.18-6.6-1.7-11.28-7.08s-10.22-14.92-10.22-14.92l15.1-24.21C183.91,114.73,181,103,177.44,98.88Z" style="fill:#b16668"></path><path d="M159.74,154.09c-3-4.43-9.91-5.13-9.91-5.13a13.35,13.35,0,0,1,11,3.34Z" style="fill:#9a4a4d"></path></g></g><g id="freepik--Shine--inject-1135"><g id="freepik--shine--inject-1135"><path d="M133.64,99.24a.25.25,0,0,1-.24-.22l-.6-6.64a1.17,1.17,0,0,0-1-1.06l-5.2-.57a.25.25,0,0,1-.21-.24.24.24,0,0,1,.21-.24l5.2-.58a1.16,1.16,0,0,0,1-1.06l.6-6.64a.24.24,0,0,1,.48,0l.6,6.64a1.17,1.17,0,0,0,1,1.06l5.2.58a.24.24,0,0,1,.21.24.25.25,0,0,1-.21.24l-5.2.57a1.18,1.18,0,0,0-1,1.06l-.6,6.64A.25.25,0,0,1,133.64,99.24Zm-4.87-8.73,3,.33a1.67,1.67,0,0,1,1.47,1.5l.36,4,.36-4a1.67,1.67,0,0,1,1.47-1.5l3-.33-3-.34a1.67,1.67,0,0,1-1.47-1.5l-.36-4-.36,4h0a1.67,1.67,0,0,1-1.47,1.5ZM133,88.65h0Z" style="fill:#BA68C8"></path><g style="opacity:0.5"><path d="M145.2,82.92a.24.24,0,0,1-.24-.21l-.41-4.52a.73.73,0,0,0-.64-.66l-3.54-.39a.23.23,0,0,1-.21-.24.23.23,0,0,1,.21-.23l3.54-.4a.71.71,0,0,0,.64-.65L145,71.1a.24.24,0,0,1,.48,0l.41,4.52a.71.71,0,0,0,.64.65l3.54.4a.23.23,0,0,1,.21.23.23.23,0,0,1-.21.24l-3.54.39a.73.73,0,0,0-.64.66l-.41,4.52A.24.24,0,0,1,145.2,82.92Zm-2.62-6,1.38.16A1.2,1.2,0,0,1,145,78.15L145.2,80l.17-1.87a1.2,1.2,0,0,1,1.06-1.09l1.39-.16-1.39-.15a1.2,1.2,0,0,1-1.06-1.09l-.17-1.87L145,75.66h0A1.2,1.2,0,0,1,144,76.75Zm2.21-1.26h0Z" style="fill:#BA68C8"></path></g></g><g id="freepik--shine--inject-1135"><path d="M166.25,30.9a.19.19,0,0,1-.19-.18l-.5-5.48a1,1,0,0,0-.86-.88l-4.29-.47a.2.2,0,0,1-.17-.2.19.19,0,0,1,.17-.19L164.7,23a1,1,0,0,0,.86-.88l.5-5.47a.19.19,0,0,1,.19-.18.2.2,0,0,1,.2.18l.49,5.47h0a1,1,0,0,0,.87.88l4.29.48a.19.19,0,0,1,.17.19.2.2,0,0,1-.17.2l-4.29.47a1,1,0,0,0-.87.88l-.49,5.48A.2.2,0,0,1,166.25,30.9Zm-4-7.21,2.52.28A1.37,1.37,0,0,1,166,25.21l.29,3.29.3-3.29A1.37,1.37,0,0,1,167.76,24l2.51-.28-2.51-.28a1.37,1.37,0,0,1-1.21-1.23l-.3-3.29L166,22.18a1.37,1.37,0,0,1-1.21,1.23Z" style="fill:#BA68C8"></path><g style="opacity:0.5"><path d="M158.81,36.88a.17.17,0,0,1-.16-.15l-.27-3a.49.49,0,0,0-.44-.44L155.56,33a.16.16,0,0,1,0-.32l2.38-.27a.48.48,0,0,0,.44-.44l.27-3a.16.16,0,0,1,.16-.15h0a.15.15,0,0,1,.16.15l.28,3a.48.48,0,0,0,.43.44l2.39.27a.16.16,0,0,1,0,.32l-2.39.26a.49.49,0,0,0-.43.45l-.28,3A.16.16,0,0,1,158.81,36.88Zm-1.76-4.06.93.1a.81.81,0,0,1,.72.74l.11,1.26.12-1.26a.8.8,0,0,1,.72-.74l.93-.1-.93-.1a.82.82,0,0,1-.72-.74h0l-.12-1.26L158.7,32a.83.83,0,0,1-.72.74Z" style="fill:#BA68C8"></path></g></g><g id="freepik--shine--inject-1135"><path d="M137.16,202.54a.2.2,0,0,1-.2-.18l-.49-5.48a1,1,0,0,0-.86-.88l-4.29-.47a.2.2,0,0,1-.18-.2.19.19,0,0,1,.18-.19l4.29-.48a1,1,0,0,0,.86-.88l.49-5.47a.2.2,0,0,1,.4,0l.49,5.47h0a1,1,0,0,0,.86.88l4.29.48a.19.19,0,0,1,.18.19.2.2,0,0,1-.18.2l-4.29.47a1,1,0,0,0-.86.88l-.49,5.48A.2.2,0,0,1,137.16,202.54Zm-4-7.21,2.51.28a1.36,1.36,0,0,1,1.21,1.24l.3,3.29.3-3.29a1.36,1.36,0,0,1,1.21-1.24l2.51-.28-2.51-.27a1.37,1.37,0,0,1-1.21-1.24l-.3-3.29-.3,3.29a1.36,1.36,0,0,1-1.21,1.24Z" style="fill:#BA68C8"></path><g style="opacity:0.5"><path d="M145.78,212a.16.16,0,0,1-.16-.14l-.27-3a.48.48,0,0,0-.43-.44l-2.39-.27a.15.15,0,0,1-.14-.16.16.16,0,0,1,.14-.16l2.39-.26a.49.49,0,0,0,.43-.44l.27-3a.17.17,0,0,1,.16-.15h0a.17.17,0,0,1,.17.15l.27,3a.49.49,0,0,0,.43.44l2.39.26a.16.16,0,0,1,.14.16.15.15,0,0,1-.14.16l-2.39.27a.48.48,0,0,0-.43.44l-.27,3A.16.16,0,0,1,145.78,212ZM144,208l.93.11a.81.81,0,0,1,.72.73l.11,1.26.12-1.26a.81.81,0,0,1,.72-.73l.93-.11-.93-.1a.81.81,0,0,1-.72-.73h0l-.12-1.26-.11,1.26a.81.81,0,0,1-.72.73Z" style="fill:#BA68C8"></path></g></g><g id="freepik--shine--inject-1135"><path d="M313.1,157.21a.2.2,0,0,1-.2-.18l-.49-5.47a1,1,0,0,0-.86-.88l-4.29-.47a.2.2,0,0,1,0-.4l4.29-.47a1,1,0,0,0,.86-.88l.49-5.47a.2.2,0,0,1,.4,0l.49,5.47h0a1,1,0,0,0,.86.88l4.29.47a.2.2,0,0,1,0,.4l-4.29.47a1,1,0,0,0-.86.88L313.3,157A.2.2,0,0,1,313.1,157.21Zm-4-7.2,2.51.28a1.36,1.36,0,0,1,1.21,1.23l.3,3.29.3-3.29a1.35,1.35,0,0,1,1.21-1.23l2.51-.28-2.51-.28a1.35,1.35,0,0,1-1.21-1.23l-.3-3.29-.3,3.29a1.36,1.36,0,0,1-1.21,1.23Z" style="fill:#BA68C8"></path><path d="M247.87,35.69a.14.14,0,0,1-.14-.12l-.33-3.7a.67.67,0,0,0-.58-.59l-2.9-.32a.13.13,0,0,1-.11-.13.12.12,0,0,1,.11-.13l2.9-.32a.67.67,0,0,0,.58-.6l.33-3.69a.14.14,0,0,1,.14-.12.13.13,0,0,1,.13.12l.33,3.69h0a.67.67,0,0,0,.58.6l2.9.32a.12.12,0,0,1,.12.13.13.13,0,0,1-.12.13l-2.9.32a.67.67,0,0,0-.58.59l-.33,3.7A.13.13,0,0,1,247.87,35.69Zm-2.72-4.86,1.7.19a.93.93,0,0,1,.82.83l.2,2.22.2-2.22a.92.92,0,0,1,.81-.83l1.7-.19-1.7-.19a.93.93,0,0,1-.81-.83l-.2-2.22-.2,2.22a.94.94,0,0,1-.82.83Z" style="fill:#BA68C8"></path><g style="opacity:0.5"><path d="M320.78,139.27a.16.16,0,0,1-.16-.15l-.28-3a.48.48,0,0,0-.43-.44l-2.39-.27a.16.16,0,0,1,0-.32l2.39-.26a.49.49,0,0,0,.43-.45l.28-3a.17.17,0,0,1,.16-.15h0a.17.17,0,0,1,.16.15l.27,3a.51.51,0,0,0,.44.44l2.38.26a.16.16,0,0,1,0,.32l-2.38.27a.5.5,0,0,0-.44.44l-.27,3A.16.16,0,0,1,320.78,139.27ZM319,135.21l.94.1a.83.83,0,0,1,.72.74l.11,1.26.11-1.26a.83.83,0,0,1,.72-.74l.94-.1-.94-.1a.82.82,0,0,1-.72-.74h0l-.11-1.26-.11,1.26a.82.82,0,0,1-.72.74Z" style="fill:#BA68C8"></path></g></g><g id="freepik--shine--inject-1135"><path d="M315.31,77.41a.21.21,0,0,1-.2-.19l-.52-5.76a1,1,0,0,0-.91-.92l-4.51-.5a.21.21,0,0,1-.19-.2.21.21,0,0,1,.19-.21l4.51-.5a1,1,0,0,0,.91-.92l.52-5.76a.21.21,0,0,1,.2-.19.21.21,0,0,1,.21.19l.52,5.76a1,1,0,0,0,.9.92l4.52.5a.21.21,0,0,1,.18.21.2.2,0,0,1-.18.2l-4.52.5a1,1,0,0,0-.9.92l-.52,5.76A.21.21,0,0,1,315.31,77.41Zm-4.23-7.57,2.65.29a1.44,1.44,0,0,1,1.27,1.3l.31,3.46.31-3.46a1.45,1.45,0,0,1,1.28-1.3l2.64-.29-2.64-.3a1.45,1.45,0,0,1-1.28-1.3h0l-.31-3.46L315,68.24a1.44,1.44,0,0,1-1.27,1.3Z" style="fill:#BA68C8"></path><g style="opacity:0.5"><path d="M300.38,84.75a.21.21,0,0,1-.21-.19l-.35-3.92a.63.63,0,0,0-.56-.56l-3.07-.34a.21.21,0,0,1-.18-.21.21.21,0,0,1,.18-.21l3.07-.34a.63.63,0,0,0,.56-.57l.35-3.92a.21.21,0,0,1,.42,0l.35,3.92h0a.63.63,0,0,0,.56.57l3.07.34a.21.21,0,0,1,.19.21.21.21,0,0,1-.19.21l-3.07.34a.63.63,0,0,0-.56.56l-.35,3.92A.21.21,0,0,1,300.38,84.75Zm-2.27-5.22,1.2.13a1,1,0,0,1,.92,1l.15,1.62.15-1.62a1,1,0,0,1,.92-1l1.21-.13-1.21-.13a1.05,1.05,0,0,1-.92-1l-.15-1.62-.15,1.62a1.05,1.05,0,0,1-.92,1Z" style="fill:#BA68C8"></path></g><g style="opacity:0.5"><path d="M320.78,95.74a.22.22,0,0,1-.21-.19l-.35-3.92a.63.63,0,0,0-.56-.57l-3.07-.34a.21.21,0,0,1-.19-.21.21.21,0,0,1,.19-.2l3.07-.34a.65.65,0,0,0,.56-.57l.35-3.92a.21.21,0,0,1,.42,0l.35,3.92h0a.65.65,0,0,0,.56.57l3.07.34a.2.2,0,0,1,.18.2.21.21,0,0,1-.18.21l-3.07.34a.63.63,0,0,0-.56.57L321,95.55A.22.22,0,0,1,320.78,95.74Zm-2.27-5.23,1.2.14a1,1,0,0,1,.92.94l.15,1.62.15-1.62a1,1,0,0,1,.92-.94l1.2-.14-1.2-.13a1,1,0,0,1-.92-.94l-.15-1.63-.15,1.63a1,1,0,0,1-.92.94Z" style="fill:#BA68C8"></path></g></g><g id="freepik--shine--inject-1135" style="opacity:0.5"><path d="M250.37,92.9a.2.2,0,0,1-.2-.19l-.35-3.84a.62.62,0,0,0-.55-.55l-3-.33a.21.21,0,0,1-.19-.21.21.21,0,0,1,.19-.2l3-.33a.63.63,0,0,0,.55-.56l.35-3.84a.2.2,0,0,1,.2-.18.2.2,0,0,1,.2.18l.35,3.84a.61.61,0,0,0,.54.56l3,.33a.2.2,0,0,1,.18.2.21.21,0,0,1-.18.21l-3,.33a.6.6,0,0,0-.54.55l-.35,3.84A.21.21,0,0,1,250.37,92.9Zm-2.23-5.12,1.18.13a1,1,0,0,1,.91.93l.14,1.59.14-1.59a1,1,0,0,1,.91-.93l1.18-.13-1.18-.13a1,1,0,0,1-.91-.92h0l-.14-1.59-.14,1.59a1,1,0,0,1-.91.92Z" style="fill:#BA68C8"></path></g><g id="freepik--shine--inject-1135" style="opacity:0.5"><path d="M147.23,261.8a.25.25,0,0,1-.25-.23l-.42-4.7a.75.75,0,0,0-.67-.68l-3.68-.41a.24.24,0,0,1-.22-.25.26.26,0,0,1,.22-.25l3.68-.4a.76.76,0,0,0,.67-.68l.42-4.7a.25.25,0,0,1,.5,0l.42,4.7a.78.78,0,0,0,.67.68l3.68.4a.27.27,0,0,1,.23.25.25.25,0,0,1-.23.25l-3.68.41a.76.76,0,0,0-.67.68l-.42,4.7A.25.25,0,0,1,147.23,261.8Zm-2.73-6.27,1.45.16a1.27,1.27,0,0,1,1.11,1.13l.17,1.95.18-1.95a1.26,1.26,0,0,1,1.11-1.13l1.44-.16-1.44-.16a1.25,1.25,0,0,1-1.11-1.13h0l-.18-2-.17,2a1.26,1.26,0,0,1-1.11,1.13Z" style="fill:#BA68C8"></path></g></g></g><g id="freepik--Box--inject-1135"><g id="freepik--box--inject-1135"><path d="M318.41,474.66l-26.06-15a5.28,5.28,0,0,1-2.38-4.13v-4.83a5.27,5.27,0,0,1,2.38-4.12l123.14-71.24a5.27,5.27,0,0,1,4.77,0l26.05,15a5.27,5.27,0,0,1,2.39,4.13v4.82a5.27,5.27,0,0,1-2.39,4.13L323.18,474.66A5.27,5.27,0,0,1,318.41,474.66Z" style="fill:#37474f"></path><path d="M415.49,375.32,292.35,446.56c-1.31.76-1.31,2,0,2.75l26.06,15a5.27,5.27,0,0,0,4.77,0L446.31,393.1c1.32-.76,1.32-2,0-2.75l-26.05-15A5.27,5.27,0,0,0,415.49,375.32Z" style="fill:#455a64"></path><path d="M320.79,464.91v10.32a4.87,4.87,0,0,1-2.38-.57l-26.06-15a5.25,5.25,0,0,1-2.38-4.12v-4.83a5.31,5.31,0,0,1,1.95-3.82c-.87.75-.72,1.78.43,2.45l26.06,15A4.87,4.87,0,0,0,320.79,464.91Z" style="fill:#263238"></path></g></g><g id="freepik--Hashtag--inject-1135"><g id="freepik--box--inject-1135"><path d="M324.24,449.24l1.72,1.33a.38.38,0,0,1,.13.27c0,.1-.08.18-.21.26l-1.56.9a.84.84,0,0,1-.44.1.83.83,0,0,1-.43-.1l0,0-1.66-1.3-2,1.15,1.72,1.33a.35.35,0,0,1,.13.27.38.38,0,0,1-.21.26l-1.56.9a1,1,0,0,1-.44.1.94.94,0,0,1-.43-.1l0,0-1.66-1.3L316,454a1.23,1.23,0,0,1-1.06,0l-1.25-.72a.36.36,0,0,1-.21-.31.37.37,0,0,1,.21-.31l1.66-.95-2.29-1.8-1.56.9a1.23,1.23,0,0,1-1.06,0l-1.25-.72a.36.36,0,0,1-.21-.31.37.37,0,0,1,.21-.31l1.9-1.09-1.68-1.33a.41.41,0,0,1-.13-.26.33.33,0,0,1,.19-.26l1.58-.91a.83.83,0,0,1,.43-.1.87.87,0,0,1,.44.1l.06,0,1.61,1.27,2-1.14-1.68-1.33a.38.38,0,0,1-.13-.26.3.3,0,0,1,.19-.25l1.58-.91a.83.83,0,0,1,.43-.11.87.87,0,0,1,.44.11l.06,0,1.61,1.28,1.33-.77a1.23,1.23,0,0,1,1.06,0l1.24.72a.36.36,0,0,1,.22.31.37.37,0,0,1-.21.31l-1.68,1,2.31,1.78,1.56-.9a1.23,1.23,0,0,1,1.06,0l1.24.72a.36.36,0,0,1,.22.31.37.37,0,0,1-.22.31Zm-6.43,1.05,2-1.14-2.29-1.8-2,1.15Z" style="fill:#f0f0f0"></path><path d="M338.37,445a6.93,6.93,0,0,1-1.21.57,10.69,10.69,0,0,1-1.15.32,7.77,7.77,0,0,1-1,.13,7.53,7.53,0,0,1-.8,0l4.21,2.43a.32.32,0,0,1,0,.61l-1.5.87a1.09,1.09,0,0,1-.53.12,1.13,1.13,0,0,1-.54-.12l-12.94-7.48a.34.34,0,0,1-.22-.3.36.36,0,0,1,.22-.31l1.5-.87a1.23,1.23,0,0,1,1.06,0l.46.27a1.31,1.31,0,0,1,0-.47,1.88,1.88,0,0,1,.23-.58,3.17,3.17,0,0,1,.56-.66,5.55,5.55,0,0,1,1-.7,7.25,7.25,0,0,1,2.17-.81,10.11,10.11,0,0,1,2.39-.19,11.2,11.2,0,0,1,2.37.34,9.25,9.25,0,0,1,2.11.8,7.64,7.64,0,0,1,.71.39c.26.15.49.28.67.41a5.38,5.38,0,0,1,1.39,1.21,2.88,2.88,0,0,1,.59,1.37,2.14,2.14,0,0,1-.34,1.38A3.78,3.78,0,0,1,338.37,445Zm-2.94-3.81a6.58,6.58,0,0,0-1.11-.64,5.44,5.44,0,0,0-2.63-.61,4.82,4.82,0,0,0-2.2.62,1.86,1.86,0,0,0-1.06,1.27c-.06.47.24.94.88,1.38a6.35,6.35,0,0,0,.71.46c.3.17.57.31.79.41a5.12,5.12,0,0,0,2.38.5,4.73,4.73,0,0,0,2.22-.6,2,2,0,0,0,1.08-1.27C336.56,442.23,336.21,441.73,335.43,441.19Z" style="fill:#f0f0f0"></path><path d="M338.9,432.39a9.2,9.2,0,0,1,2.3-.94,10.79,10.79,0,0,1,2.45-.34,11.37,11.37,0,0,1,2.41.2,8.43,8.43,0,0,1,2.14.73,4.53,4.53,0,0,1,.47.25c.19.1.37.21.55.32l.55.31.42.27a4.17,4.17,0,0,1,1.24,1.24,2.21,2.21,0,0,1,.36,1.38,2.7,2.7,0,0,1-.6,1.41,5.53,5.53,0,0,1-1.63,1.32,9.05,9.05,0,0,1-2.3.94,10.72,10.72,0,0,1-2.44.35,10.44,10.44,0,0,1-2.38-.2,9.14,9.14,0,0,1-2.16-.72l-.47-.24-.55-.31c-.19-.1-.37-.21-.55-.32l-.42-.28a4.1,4.1,0,0,1-1.25-1.24,2.36,2.36,0,0,1-.36-1.39,2.61,2.61,0,0,1,.59-1.41A5.68,5.68,0,0,1,338.9,432.39Zm6.83,1.19a4.72,4.72,0,0,0-1.3-.43,5,5,0,0,0-1.21,0,4.25,4.25,0,0,0-1.05.23,6.19,6.19,0,0,0-.9.42,3.7,3.7,0,0,0-.72.52,1.3,1.3,0,0,0-.4.61.94.94,0,0,0,.07.69,2.3,2.3,0,0,0,.73.75l.37.25.48.29.52.28.41.21a4.77,4.77,0,0,0,2.51.47,4.25,4.25,0,0,0,1.05-.24,6.16,6.16,0,0,0,.9-.41,4.17,4.17,0,0,0,.72-.52,1.46,1.46,0,0,0,.41-.61,1,1,0,0,0-.08-.7,2.2,2.2,0,0,0-.73-.75,2.8,2.8,0,0,0-.37-.23l-.5-.29-.49-.29A4.08,4.08,0,0,0,345.73,433.58Z" style="fill:#f0f0f0"></path><path d="M362.33,431.17a7,7,0,0,1-1.22.57,8.15,8.15,0,0,1-1.14.31,6.59,6.59,0,0,1-1,.14,7.59,7.59,0,0,1-.8,0l4.21,2.42a.37.37,0,0,1,.21.31.36.36,0,0,1-.21.31l-1.5.87a1.13,1.13,0,0,1-.54.12,1.07,1.07,0,0,1-.53-.12l-12.94-7.48a.32.32,0,0,1,0-.61l1.5-.87a1.07,1.07,0,0,1,.53-.12,1.09,1.09,0,0,1,.53.12l.45.26a1.92,1.92,0,0,1,0-.46,2.1,2.1,0,0,1,.24-.58,3.43,3.43,0,0,1,.55-.66,5.67,5.67,0,0,1,1-.7,7.15,7.15,0,0,1,2.17-.81,10.11,10.11,0,0,1,2.39-.19,11.2,11.2,0,0,1,2.37.34,9.43,9.43,0,0,1,2.11.8c.21.1.45.23.71.38l.67.41a5.19,5.19,0,0,1,1.38,1.22,2.79,2.79,0,0,1,.59,1.37,2.15,2.15,0,0,1-.33,1.38A4,4,0,0,1,362.33,431.17Zm-2.94-3.82a7.32,7.32,0,0,0-1.11-.63,5.44,5.44,0,0,0-2.63-.61,4.78,4.78,0,0,0-2.2.62,1.81,1.81,0,0,0-1.06,1.27c-.06.47.23.93.88,1.38a8.19,8.19,0,0,0,.71.46,8.79,8.79,0,0,0,.79.41,5,5,0,0,0,2.38.49,4.64,4.64,0,0,0,2.22-.59,1.92,1.92,0,0,0,1.07-1.27Q360.54,428.16,359.39,427.35Z" style="fill:#f0f0f0"></path><path d="M359,421.65a.33.33,0,0,1,0-.62l1.5-.86A1,1,0,0,1,361,420a1,1,0,0,1,.53.13l5,2.89a5.88,5.88,0,0,0,2.4.8,3.88,3.88,0,0,0,2.36-.54c.69-.4,1-.85.88-1.33s-.55-1-1.34-1.41l-5-2.9a.32.32,0,0,1,0-.61l1.5-.87a1.23,1.23,0,0,1,1.06,0l9.2,5.31a.36.36,0,0,1,.22.31.37.37,0,0,1-.22.31l-1.5.86a1.06,1.06,0,0,1-.53.13A1.13,1.13,0,0,1,375,423l-.45-.26a2.51,2.51,0,0,1-.3,1.12A3.18,3.18,0,0,1,373,425a7.85,7.85,0,0,1-4.63,1.08,8.77,8.77,0,0,1-2.15-.46,12.07,12.07,0,0,1-2-.91Z" style="fill:#f0f0f0"></path><path d="M382.89,418.46a.32.32,0,0,1,0,.61l-1.5.87a1.09,1.09,0,0,1-.53.12,1.13,1.13,0,0,1-.54-.12l-12.94-7.48a.32.32,0,0,1,0-.61l1.5-.87a1.23,1.23,0,0,1,1.06,0Z" style="fill:#f0f0f0"></path><path d="M378.41,412.73a2,2,0,0,1-.52-.73,1.61,1.61,0,0,1-.08-1,2.55,2.55,0,0,1,.6-1.13,5.55,5.55,0,0,1,1.5-1.18,9.73,9.73,0,0,1,2.08-.89,8.55,8.55,0,0,1,2.17-.35,7.78,7.78,0,0,1,2.19.23,8.09,8.09,0,0,1,2.11.84l5.8,3.35a.37.37,0,0,1,.21.31.36.36,0,0,1-.21.31l-1.5.87a1.13,1.13,0,0,1-.54.12,1.09,1.09,0,0,1-.53-.12L391,413a1.62,1.62,0,0,1-.22,1.25,4,4,0,0,1-1.58,1.38,7.39,7.39,0,0,1-3.51,1,7.15,7.15,0,0,1-1.68-.16,5.17,5.17,0,0,1-1.48-.57c-.9-.53-1.29-1.12-1.16-1.79A3.89,3.89,0,0,1,383,412l2.66-2.17a2.58,2.58,0,0,0-1.67-.36,4.55,4.55,0,0,0-1.66.57,1.69,1.69,0,0,0-.63.53,1.06,1.06,0,0,0-.16.52.57.57,0,0,1-.11.31.9.9,0,0,1-.27.23l-1.83,1.06a1.08,1.08,0,0,1-.46.12A.56.56,0,0,1,378.41,412.73Zm8.86,1.31a3.82,3.82,0,0,0,1-.8,1.52,1.52,0,0,0,.37-.8,1.08,1.08,0,0,0-.17-.72,1.89,1.89,0,0,0-.64-.57l-.19-.11-2.21,1.82a2.11,2.11,0,0,0-.76.91c-.06.24.06.44.36.62a1.43,1.43,0,0,0,1,.11A4.13,4.13,0,0,0,387.27,414Z" style="fill:#f0f0f0"></path><path d="M394.32,403.36c-.79.46-1.19.89-1.19,1.29s.4.83,1.19,1.28l5.13,3a.33.33,0,0,1,0,.61l-1.5.87a1.13,1.13,0,0,1-.54.12,1.09,1.09,0,0,1-.53-.12l-9.2-5.31a.36.36,0,0,1-.21-.31.37.37,0,0,1,.22-.31l1.5-.86a1.15,1.15,0,0,1,1.06,0l.45.26a2.11,2.11,0,0,1,.37-1.05,3.87,3.87,0,0,1,1.27-1l.89-.51a1.07,1.07,0,0,1,.53-.12,1.13,1.13,0,0,1,.54.12l1.3.75a.39.39,0,0,1,.22.31.37.37,0,0,1-.22.31Z" style="fill:#f0f0f0"></path><path d="M393.78,396.6a1.13,1.13,0,0,1,.54-.12,1.09,1.09,0,0,1,.53.12l1.54.89a.33.33,0,0,1,0,.62l-1.7,1a1.07,1.07,0,0,1-.53.12,1.13,1.13,0,0,1-.54-.12l-1.53-.89a.36.36,0,0,1-.22-.31.37.37,0,0,1,.22-.31Zm13.91,7.53a.37.37,0,0,1,.22.31.36.36,0,0,1-.21.31l-1.5.87a1.13,1.13,0,0,1-.54.12,1.07,1.07,0,0,1-.53-.12l-9.2-5.31a.37.37,0,0,1-.21-.31.36.36,0,0,1,.21-.31l1.5-.86a1,1,0,0,1,.54-.13,1,1,0,0,1,.53.13Z" style="fill:#f0f0f0"></path><path d="M410.69,398.73a2.68,2.68,0,0,0,1.31.38,3,3,0,0,0,1.58-.49l1.2-.69a1,1,0,0,1,.53-.13,1,1,0,0,1,.54.13l1.3.75c.14.08.22.18.21.3a.35.35,0,0,1-.21.31l-1.46.85a7.88,7.88,0,0,1-3.75,1.12,7,7,0,0,1-3.75-1L404,397.8l-1.31.75a1.15,1.15,0,0,1-1.06,0l-1.31-.75a.36.36,0,0,1-.21-.31.37.37,0,0,1,.21-.31l1.31-.75-3.22-1.85a.39.39,0,0,1-.22-.31.37.37,0,0,1,.22-.31l1.5-.87a1.09,1.09,0,0,1,.53-.12,1.13,1.13,0,0,1,.54.12l3.21,1.86,2.55-1.47a1.23,1.23,0,0,1,1.06,0l1.31.75a.37.37,0,0,1,.21.31.36.36,0,0,1-.21.31l-2.55,1.47Z" style="fill:#f0f0f0"></path><path d="M422.18,395.75l-12.94-3-.16-.07a.33.33,0,0,1,0-.62l1.48-.85a1.26,1.26,0,0,1,.57-.15,1.77,1.77,0,0,1,.55,0l8.73,2-3.48-5a.43.43,0,0,1-.08-.32.46.46,0,0,1,.26-.33l1.48-.86a1.23,1.23,0,0,1,1.06,0,.31.31,0,0,1,.12.09l7.32,10.63a.39.39,0,0,1,.08.32.44.44,0,0,1-.25.33l-1.48.86a1.13,1.13,0,0,1-.54.12,1.09,1.09,0,0,1-.53-.12l-.12-.09Z" style="fill:#f0f0f0"></path></g></g><g id="freepik--comments--inject-1135"><g id="freepik--comments--inject-1135"><path d="M391.42,149.67l-76,43.86a10.77,10.77,0,0,0-4.86,8.42v7.28c-3,1.47-10.16,7.2-10,14.61,3.24-3.68,6.94-6,10-5.68v5.5c0,3.1,2.18,4.36,4.86,2.81l76-43.86a10.76,10.76,0,0,0,4.86-8.42V152.48C396.28,149.38,394.1,148.12,391.42,149.67Z" style="fill:#fff"></path><path d="M313.27,227.7a3,3,0,0,1-1.54-.41,3.93,3.93,0,0,1-1.71-3.63v-5h-.08c-2.61,0-5.85,2-9,5.53a.58.58,0,0,1-.62.15.55.55,0,0,1-.36-.51c-.13-7.34,6.5-13.1,10-15V202a11.4,11.4,0,0,1,5.14-8.91l76-43.86a3.51,3.51,0,0,1,5.7,3.29v21.71a11.39,11.39,0,0,1-5.14,8.9l-76,43.86A4.91,4.91,0,0,1,313.27,227.7ZM310,217.56c.23,0,.46,0,.69,0a.57.57,0,0,1,.49.56v5.5a2.42,2.42,0,0,0,4,2.32l76-43.86a10.16,10.16,0,0,0,4.58-7.93V152.48a2.42,2.42,0,0,0-4-2.32h0l-76,43.86a10.16,10.16,0,0,0-4.58,7.94v7.27a.57.57,0,0,1-.31.51c-2.87,1.39-8.88,6.34-9.64,12.59C304.21,219.26,307.32,217.56,310,217.56Zm81.46-67.89h0Z" style="fill:#e0e0e0"></path><path d="M321.71,199.44c3.54-1.94,6.24-.08,6,4.17s-3.27,9.26-6.81,11.21-6.25.08-6-4.16S318.16,201.39,321.71,199.44Z" style="fill:#BA68C8"></path><g style="opacity:0.5"><path d="M321.71,199.44c3.54-1.94,6.24-.08,6,4.17s-3.27,9.26-6.81,11.21-6.25.08-6-4.16S318.16,201.39,321.71,199.44Z" style="fill:#fff"></path></g><path d="M321.24,202.36c.91-.52,1.65-.1,1.65,1a3.66,3.66,0,0,1-1.65,2.86c-.91.52-1.65.1-1.65-1A3.66,3.66,0,0,1,321.24,202.36Z" style="fill:#fff"></path><path d="M324.49,208.39c0-1.73-1.21-2.49-2.71-1.63l-.94.54a6,6,0,0,0-2.71,4.7v.47s.64,1.31,3.18-.19a7.09,7.09,0,0,0,3.18-3.48Z" style="fill:#fff"></path><path d="M334.92,190.22l28.92-16.69c1.65-.95,3-.68,3,.6s-1.33,3.12-3,4.09l-29,17.36c-1.64,1-3,.55-3-.94A6,6,0,0,1,334.92,190.22Z" style="fill:#455a64"></path><path d="M334.55,202l52.76-30.7c1.44-.84,2.62-.6,2.62.52s-1.17,2.73-2.6,3.58l-52.8,31.29c-1.43.85-2.59.49-2.59-.82A5.26,5.26,0,0,1,334.55,202Z" style="fill:#e0e0e0"></path></g><g id="freepik--comments--inject-1135"><path d="M452.78,174.55l-76,43.87a10.73,10.73,0,0,0-4.86,8.42v7.28c-3,1.46-10.17,7.19-10,14.6,3.25-3.68,6.95-6,10-5.68v5.5c0,3.1,2.17,4.36,4.86,2.81l76-43.86a10.73,10.73,0,0,0,4.86-8.42V177.36C457.64,174.26,455.47,173,452.78,174.55Z" style="fill:#fff"></path><path d="M374.64,252.58a3.17,3.17,0,0,1-1.55-.4,4,4,0,0,1-1.7-3.64v-5h-.08c-2.62,0-5.85,2-9,5.53a.56.56,0,0,1-.61.16.57.57,0,0,1-.37-.52c-.12-7.34,6.51-13.1,10-15v-6.93a11.37,11.37,0,0,1,5.14-8.91l76-43.86h0a3.51,3.51,0,0,1,5.7,3.29v21.71a11.35,11.35,0,0,1-5.14,8.9l-76,43.87A5,5,0,0,1,374.64,252.58Zm-3.31-10.13a5.07,5.07,0,0,1,.68,0,.56.56,0,0,1,.5.55v5.5a2.9,2.9,0,0,0,1.14,2.67,2.93,2.93,0,0,0,2.88-.34l76-43.87a10.13,10.13,0,0,0,4.58-7.93V177.36a2.42,2.42,0,0,0-4-2.32l-76,43.86a10.14,10.14,0,0,0-4.58,7.94v7.28a.56.56,0,0,1-.32.5c-2.87,1.39-8.87,6.34-9.64,12.59C365.57,244.14,368.68,242.45,371.33,242.45Z" style="fill:#e0e0e0"></path><path d="M383.06,224.32c3.54-1.94,6.24-.08,6,4.17s-3.27,9.27-6.81,11.21-6.25.08-6-4.16S379.51,226.27,383.06,224.32Z" style="fill:#BA68C8"></path><g style="opacity:0.5"><path d="M383.06,224.32c3.54-1.94,6.24-.08,6,4.17s-3.27,9.27-6.81,11.21-6.25.08-6-4.16S379.51,226.27,383.06,224.32Z" style="fill:#fff"></path></g><path d="M382.59,227.25c.91-.53,1.65-.1,1.65.95a3.66,3.66,0,0,1-1.65,2.86c-.91.53-1.65.1-1.65-.95A3.63,3.63,0,0,1,382.59,227.25Z" style="fill:#fff"></path><path d="M385.84,233.28c0-1.73-1.21-2.5-2.71-1.64l-.94.54a6,6,0,0,0-2.71,4.7v.47s.64,1.32,3.18-.19a7.09,7.09,0,0,0,3.18-3.48Z" style="fill:#fff"></path><path d="M396.28,215.1l28.91-16.69c1.65-.95,3-.68,3,.6s-1.33,3.12-3,4.09l-29,17.36c-1.64,1-3,.55-3-.94A6,6,0,0,1,396.28,215.1Z" style="fill:#455a64"></path><path d="M398,233a.46.46,0,0,1-.2,0l-1.15-.62-.34-.16a3,3,0,0,1-2.12-3.33,3.67,3.67,0,0,1,1.6-3.18,1.43,1.43,0,0,1,2.07,1.08,5.17,5.17,0,0,1,1.28-3.05,1.71,1.71,0,0,1,1.73-.31,1.76,1.76,0,0,1,.94,1.55c.18,1.9-1,3.78-1.91,5.28l-.39.64-1.15,1.94A.41.41,0,0,1,398,233Z" style="fill:#BA68C8"></path><path d="M409,226.58a.46.46,0,0,1-.2-.05l-1.15-.62-.34-.17a3,3,0,0,1-2.12-3.32,3.71,3.71,0,0,1,1.6-3.19,1.43,1.43,0,0,1,2.07,1.08,5.14,5.14,0,0,1,1.28-3,1.71,1.71,0,0,1,1.73-.32,1.79,1.79,0,0,1,.94,1.55c.18,1.9-1,3.78-1.91,5.29l-.39.63-1.15,2A.42.42,0,0,1,409,226.58Z" style="fill:#BA68C8"></path><path d="M420.08,220.2a.35.35,0,0,1-.2,0l-1.15-.62-.34-.16a3,3,0,0,1-2.12-3.32,3.7,3.7,0,0,1,1.6-3.19,1.43,1.43,0,0,1,2.07,1.08,5.11,5.11,0,0,1,1.28-3,1.69,1.69,0,0,1,1.73-.32,1.77,1.77,0,0,1,.94,1.55c.18,1.9-1,3.78-1.91,5.29l-.39.63L420.44,220A.4.4,0,0,1,420.08,220.2Z" style="fill:#BA68C8"></path></g></g><g id="freepik--speech-bubble-2--inject-1135"><g id="freepik--speech-bubble--inject-1135"><g id="freepik--speech-bubble--inject-1135"><path d="M435.77,166.66l-2.84-5.35,2.29-6.61v-4l-7,4v4.05l3,5.21a.38.38,0,0,0,.2.18h0Z" style="fill:#BA68C8"></path><path d="M435.77,166.66l-2.84-5.35,2.29-6.61v-4l-7,4v4.05l3,5.21a.38.38,0,0,0,.2.18h0Z" style="opacity:0.2"></path><path d="M452.5,118.51a4.65,4.65,0,0,0-2.1-3.64l-1.71-1a4.64,4.64,0,0,0-4.2,0l-26.22,15.17a4.65,4.65,0,0,0-2.1,3.64v28.85a4.65,4.65,0,0,0,2.1,3.64l1.71,1a4.64,4.64,0,0,0,4.2,0l8.43-4.88,3,5.21a.45.45,0,0,0,.81-.08l3.18-9.17L450.4,151a4.65,4.65,0,0,0,2.1-3.64Z" style="fill:#BA68C8"></path><path d="M416.17,161.54a4.65,4.65,0,0,0,2.1,3.64l1.71,1a4.75,4.75,0,0,0,3.84.17c-1,.37-1.74-.19-1.74-1.39V136.1a4.29,4.29,0,0,1,.61-2.07l-5.91-3.41a4.29,4.29,0,0,0-.61,2.07Z" style="opacity:0.2"></path><path d="M452.43,117.91c-.24-.89-1.05-1.18-2-.62l-26.23,15.17A4.16,4.16,0,0,0,422.7,134l-5.91-3.41a4.31,4.31,0,0,1,1.48-1.57l26.22-15.17a4.7,4.7,0,0,1,4.2,0l1.72,1A4.6,4.6,0,0,1,452.43,117.91Z" style="fill:#fff;opacity:0.30000000000000004"></path></g><path d="M429.37,142.33a12.06,12.06,0,0,1,1-4.69h0v0a8.25,8.25,0,0,1,3-3.82c2-1.2,3.74,1.26,4,4.16.24-3.19,1.91-7.63,3.95-8.82a2.21,2.21,0,0,1,3,.31v0h0a5.42,5.42,0,0,1,1,3.51c0,4.89-2.9,9.31-5.34,14l-2.64,4.5L434.82,150C432.35,148.2,429.4,147.22,429.37,142.33Z" style="fill:#fafafa"></path></g></g><g id="freepik--speech-bubble-1--inject-1135"><g id="freepik--speech-bubble--inject-1135"><g id="freepik--speech-bubble--inject-1135"><path d="M400.93,333.37l-4-7.47,3.2-9.24V311l-9.79,5.66v5.65l4.21,7.29a.6.6,0,0,0,.29.26h0Z" style="fill:#BA68C8"></path><path d="M400.93,333.37l-4-7.47,3.2-9.24V311l-9.79,5.66v5.65l4.21,7.29a.6.6,0,0,0,.29.26h0Z" style="opacity:0.30000000000000004"></path><path d="M421.8,264.79a6.47,6.47,0,0,0-2.94-5.09l-2.39-1.38a6.46,6.46,0,0,0-5.87,0L192.33,383.85a6.51,6.51,0,0,0-2.93,5.09V432a6.49,6.49,0,0,0,2.93,5.09l2.39,1.38a6.48,6.48,0,0,0,5.88,0L396.51,325.87l4.2,7.28a.63.63,0,0,0,1.14-.11l4.44-12.81L418.87,313a6.51,6.51,0,0,0,2.93-5.09Z" style="fill:#BA68C8"></path><path d="M189.4,432a6.49,6.49,0,0,0,2.93,5.09l2.39,1.38a6.58,6.58,0,0,0,5.38.24c-1.39.52-2.44-.26-2.44-1.94v-42.3c0-1.71-.06-3,.47-3.9L190.26,386a6,6,0,0,0-.86,2.9Z" style="opacity:0.30000000000000004"></path><path d="M421.7,264c-.34-1.24-1.47-1.64-2.83-.86L200.6,388.63a6.2,6.2,0,0,0-2.47,2l-7.86-4.56a5.84,5.84,0,0,1,2.07-2.19L410.6,258.32a6.52,6.52,0,0,1,5.87,0l2.4,1.39A6.43,6.43,0,0,1,421.7,264Z" style="fill:#fff;opacity:0.30000000000000004"></path></g></g></g><g id="freepik--Text--inject-1135"><path id="freepik--heart--inject-1135" d="M214.8,412.52l2.45.66,2.44-3.5c1.82-2.59,6.63-9.49,6.62-15.84,0-3.34-2-4.87-4.55-3.42-2.31,1.34-4.24,4.76-4.53,7.9-.29-2.8-2.23-4-4.54-2.64-2.51,1.46-4.54,5.35-4.53,8.69C208.16,410.72,213,412,214.8,412.52Z" style="fill:#ebebeb"></path><path d="M240,400.08a.33.33,0,0,1-.38,0,.49.49,0,0,1-.15-.41V396.5L233.31,400a.3.3,0,0,1-.37,0,.48.48,0,0,1-.16-.41v-1.86a2,2,0,0,1,.13-.72c.08-.23.19-.49.3-.77l6-13.51a2.35,2.35,0,0,1,.81-1.12l1.49-.86a.32.32,0,0,1,.38,0,.5.5,0,0,1,.16.41v10.5l1.69-1a.31.31,0,0,1,.37,0,.46.46,0,0,1,.16.4V393a1.22,1.22,0,0,1-.16.59,1.06,1.06,0,0,1-.37.43l-1.69,1v3.18a1.34,1.34,0,0,1-.16.59,1.08,1.08,0,0,1-.38.43Zm-.53-6.86V387.6l-3.37,7.56Z" style="fill:#ebebeb"></path><path d="M255.43,372.76a.31.31,0,0,1,.37,0,.49.49,0,0,1,.16.41V375a1.52,1.52,0,0,1-.15.62,5.65,5.65,0,0,1-.29.6l-2.87,5.7a4.46,4.46,0,0,1,1.6-.35,2.14,2.14,0,0,1,1.24.38,2.32,2.32,0,0,1,.78,1.14,5.38,5.38,0,0,1,.28,1.89,8.9,8.9,0,0,1-.41,2.66,10,10,0,0,1-1.12,2.44,11.43,11.43,0,0,1-1.69,2.11,10.55,10.55,0,0,1-2.12,1.62,7,7,0,0,1-2.39.94,3.06,3.06,0,0,1-1.69-.13,2.07,2.07,0,0,1-1-1,3.74,3.74,0,0,1-.41-1.46,1,1,0,0,1,.15-.6,1.05,1.05,0,0,1,.38-.42l1.56-.9c.13-.07.24-.08.32,0a1.08,1.08,0,0,1,.27.33,1.27,1.27,0,0,0,.31.41,1,1,0,0,0,.52.19,2,2,0,0,0,.82-.11,6.23,6.23,0,0,0,1.2-.57,5.78,5.78,0,0,0,1.94-1.76,3.9,3.9,0,0,0,.74-2.25c0-.79-.25-1.21-.74-1.27a3.48,3.48,0,0,0-1.94.61l-1.63.95a.33.33,0,0,1-.38,0,.49.49,0,0,1-.15-.41v-1.86a1.76,1.76,0,0,1,.14-.63c.1-.22.2-.42.29-.59l2.76-5.45L246.8,381a.3.3,0,0,1-.37,0,.46.46,0,0,1-.16-.41v-1.86a1.22,1.22,0,0,1,.16-.59,1.06,1.06,0,0,1,.37-.43Z" style="fill:#ebebeb"></path><path d="M259.38,371.19a1.34,1.34,0,0,1,.16-.59,1.08,1.08,0,0,1,.38-.43l7.4-4.27a.3.3,0,0,1,.37,0,.48.48,0,0,1,.16.41v1.86a1.22,1.22,0,0,1-.16.59,1.06,1.06,0,0,1-.37.43l-5.53,3.19-.22,3.49a5.31,5.31,0,0,1,1.05-.95c.35-.24.64-.42.86-.55a6.14,6.14,0,0,1,2-.79,2.5,2.5,0,0,1,1.63.23,2.53,2.53,0,0,1,1.08,1.28,5.85,5.85,0,0,1,.4,2.37,11.82,11.82,0,0,1-.4,3.11,10.67,10.67,0,0,1-1.11,2.6,9.36,9.36,0,0,1-1.64,2.08,10.57,10.57,0,0,1-2,1.51,6.68,6.68,0,0,1-2.33.93,2.49,2.49,0,0,1-1.62-.21,2.13,2.13,0,0,1-1-1.1,4.75,4.75,0,0,1-.37-1.74,1.12,1.12,0,0,1,.15-.6,1.21,1.21,0,0,1,.38-.42l1.6-.92a.35.35,0,0,1,.35,0,.44.44,0,0,1,.22.33,1.42,1.42,0,0,0,.37.77,1,1,0,0,0,.59.26,1.61,1.61,0,0,0,.75-.13,4.91,4.91,0,0,0,.87-.42,4.84,4.84,0,0,0,1.81-1.86A5.19,5.19,0,0,0,266,379a1.64,1.64,0,0,0-.69-1.57,1.85,1.85,0,0,0-1.81.23,5.78,5.78,0,0,0-.94.66,5,5,0,0,0-.56.6c-.14.19-.27.36-.39.5a1.52,1.52,0,0,1-.45.38l-1.82,1.05a.32.32,0,0,1-.37,0,.48.48,0,0,1-.16-.41Z" style="fill:#ebebeb"></path><path d="M306.5,349.21a.6.6,0,0,1-.11-.46,1.35,1.35,0,0,1,.21-.6l4.27-6.95.33-.49a1.23,1.23,0,0,1,.36-.36l1.54-.88a.3.3,0,0,1,.37,0,.46.46,0,0,1,.16.41v17a1.22,1.22,0,0,1-.16.59,1,1,0,0,1-.37.42l-1.6.92a.3.3,0,0,1-.37,0,.46.46,0,0,1-.16-.41v-13l-2.79,4.53a.9.9,0,0,1-.39.37.32.32,0,0,1-.36-.07Z" style="fill:#ebebeb"></path><path d="M316.94,338a1.19,1.19,0,0,1,.16-.59,1,1,0,0,1,.37-.43l7.4-4.27a.32.32,0,0,1,.38,0,.5.5,0,0,1,.16.41v1.86a1.31,1.31,0,0,1-.16.59,1.08,1.08,0,0,1-.38.43l-5.53,3.19-.22,3.49a6,6,0,0,1,1.06-.95c.34-.24.63-.42.85-.55a6.46,6.46,0,0,1,2.05-.79,2.33,2.33,0,0,1,2.72,1.51,6,6,0,0,1,.39,2.37,11.36,11.36,0,0,1-.4,3.11,11.05,11.05,0,0,1-1.1,2.6A9.7,9.7,0,0,1,323,352a10.17,10.17,0,0,1-2,1.51,6.61,6.61,0,0,1-2.33.93,2.45,2.45,0,0,1-1.61-.21,2.19,2.19,0,0,1-1-1.1,4.56,4.56,0,0,1-.36-1.74,1,1,0,0,1,.14-.6,1.23,1.23,0,0,1,.39-.42l1.59-.92a.39.39,0,0,1,.36,0,.43.43,0,0,1,.21.33,1.43,1.43,0,0,0,.38.77,1,1,0,0,0,.59.26,1.77,1.77,0,0,0,.75-.12,6.26,6.26,0,0,0,.86-.43,4.86,4.86,0,0,0,1.82-1.86,5.19,5.19,0,0,0,.69-2.63,1.65,1.65,0,0,0-.69-1.57,1.87,1.87,0,0,0-1.82.23,5.65,5.65,0,0,0-.93.66,4.29,4.29,0,0,0-.56.6l-.4.5a1.4,1.4,0,0,1-.45.38l-1.81,1.05a.32.32,0,0,1-.37,0,.48.48,0,0,1-.16-.41Z" style="fill:#ebebeb"></path><path d="M338.72,331.53c0,.32,0,.69,0,1.09v2.47c0,.4,0,.77,0,1.11a19.64,19.64,0,0,1-.35,3,11.75,11.75,0,0,1-.9,2.78,10.3,10.3,0,0,1-1.62,2.43,9.66,9.66,0,0,1-2.43,1.94,5.58,5.58,0,0,1-2.44.88,2.1,2.1,0,0,1-1.61-.58,3.55,3.55,0,0,1-.9-1.73,13,13,0,0,1-.35-2.62c0-.65,0-1.4,0-2.25s0-1.61,0-2.3a20.35,20.35,0,0,1,.35-3,11.91,11.91,0,0,1,.9-2.82,10.7,10.7,0,0,1,1.61-2.47,9.45,9.45,0,0,1,2.44-2,5.69,5.69,0,0,1,2.43-.87,2.15,2.15,0,0,1,1.62.57,3.6,3.6,0,0,1,.9,1.73A13,13,0,0,1,338.72,331.53Zm-7.94,9.12a4.53,4.53,0,0,0,.68,2.54c.39.47,1,.43,2-.1a4.47,4.47,0,0,0,2-2.17,9.8,9.8,0,0,0,.68-3.32c0-.68,0-1.42,0-2.22s0-1.54,0-2.19a4.49,4.49,0,0,0-.68-2.53c-.39-.47-1-.44-2,.09a4.52,4.52,0,0,0-2,2.17,9.85,9.85,0,0,0-.68,3.32c0,.68,0,1.42,0,2.23S330.75,340,330.78,340.65Z" style="fill:#ebebeb"></path><path d="M301,364.86l-1.9-4a16.94,16.94,0,0,0,1.06-5.6c0-5.83-4-8.24-8.93-5.39s-8.93,9.88-8.93,15.7,4,8.23,8.93,5.38A17.7,17.7,0,0,0,297,365Z" style="fill:#ebebeb"></path><path d="M384.51,306.32a5.74,5.74,0,0,0,.76-1.72,6.36,6.36,0,0,0,.17-1.31,2.09,2.09,0,0,0-.49-1.54c-.33-.31-.88-.24-1.64.2a3.84,3.84,0,0,0-1.58,1.62,7.78,7.78,0,0,0-.72,2.23,1.69,1.69,0,0,1-.24.65,1.14,1.14,0,0,1-.35.37l-1.56.9a.35.35,0,0,1-.38,0q-.17-.09-.15-.42a10.39,10.39,0,0,1,.45-2.5,12.87,12.87,0,0,1,1.06-2.44,11.76,11.76,0,0,1,1.54-2.14,7.89,7.89,0,0,1,1.91-1.56,4.3,4.3,0,0,1,2.15-.7,2.29,2.29,0,0,1,1.5.52,3.07,3.07,0,0,1,.87,1.39,6,6,0,0,1,.29,1.89c0,.44,0,.87-.06,1.28a6.64,6.64,0,0,1-.28,1.35,10.84,10.84,0,0,1-.63,1.59,20.5,20.5,0,0,1-1.1,2l-3.64,6.54,5.47-3.16a.32.32,0,0,1,.38,0,.5.5,0,0,1,.15.41v1.86a1.29,1.29,0,0,1-.15.59,1,1,0,0,1-.38.43l-9.2,5.31a.32.32,0,0,1-.37,0,.5.5,0,0,1-.16-.41V318a2.17,2.17,0,0,1,.2-.89,5.67,5.67,0,0,1,.33-.66Z" style="fill:#ebebeb"></path><path d="M391.25,295.06a1.29,1.29,0,0,1,.15-.59,1,1,0,0,1,.38-.43l7.4-4.28a.33.33,0,0,1,.38,0,.49.49,0,0,1,.16.41V292a1.34,1.34,0,0,1-.16.59,1.08,1.08,0,0,1-.38.43l-5.53,3.19-.22,3.49a5.63,5.63,0,0,1,1.06-1c.34-.24.63-.42.85-.55a6.23,6.23,0,0,1,2.05-.79,2.53,2.53,0,0,1,1.64.23,2.51,2.51,0,0,1,1.08,1.27,6.13,6.13,0,0,1,.39,2.38,11.29,11.29,0,0,1-.4,3.1A11,11,0,0,1,399,307a9.7,9.7,0,0,1-1.65,2.08,10.57,10.57,0,0,1-2,1.51,6.81,6.81,0,0,1-2.33.93,2.58,2.58,0,0,1-1.61-.21,2.24,2.24,0,0,1-1-1.1,4.56,4.56,0,0,1-.36-1.74,1.16,1.16,0,0,1,.53-1l1.59-.92a.34.34,0,0,1,.36,0,.46.46,0,0,1,.21.33,1.46,1.46,0,0,0,.38.77,1,1,0,0,0,.59.26,1.65,1.65,0,0,0,.75-.13,6.14,6.14,0,0,0,.86-.42,4.84,4.84,0,0,0,1.81-1.86,5.22,5.22,0,0,0,.69-2.63,1.64,1.64,0,0,0-.69-1.57,1.85,1.85,0,0,0-1.81.23,5.65,5.65,0,0,0-.93.66,4.29,4.29,0,0,0-.56.6l-.4.5a1.52,1.52,0,0,1-.45.38l-1.81,1.05a.31.31,0,0,1-.37,0,.44.44,0,0,1-.16-.4Z" style="fill:#ebebeb"></path><path d="M409.07,302.44a.33.33,0,0,1-.38,0,.49.49,0,0,1-.15-.41v-3.17l-6.11,3.52a.32.32,0,0,1-.37,0,.48.48,0,0,1-.16-.41v-1.86a2,2,0,0,1,.13-.72c.08-.23.19-.49.3-.77l6-13.51a2.35,2.35,0,0,1,.81-1.12l1.49-.86a.32.32,0,0,1,.38,0,.5.5,0,0,1,.15.41V294l1.7-1a.31.31,0,0,1,.37,0,.46.46,0,0,1,.16.4v1.87a1.22,1.22,0,0,1-.16.59,1,1,0,0,1-.37.42l-1.7,1v3.18a1.32,1.32,0,0,1-.15.59,1,1,0,0,1-.38.42Zm-.53-6.86V290l-3.37,7.56Z" style="fill:#ebebeb"></path><path d="M364.39,313c0,2.93-1.78,6.34-4,7.6s-4-.07-4-3,1.78-6.33,4-7.6S364.39,310.09,364.39,313Z" style="fill:#ebebeb"></path><path d="M357,325.13l6.82-3.94c1.8-1,3.32-.15,3.57,2.08l.38,3.47-14.72,8.5.39-3.91A8.52,8.52,0,0,1,357,325.13Z" style="fill:#ebebeb"></path></g></svg>